<svg width="137" height="36" viewBox="0 0 137 36" fill="none" xmlns="http://www.w3.org/2000/svg">
<path d="M19.6137 11.678C19.5197 10.764 19.0897 9.95 18.4497 9.362C17.7457 8.712 17.3617 7.784 17.3617 6.828V6.746C17.3617 5.93 17.6677 5.154 18.1717 4.51C18.5397 4.038 18.7597 3.444 18.7597 2.798C18.7597 1.252 17.5097 0.002 15.9637 0C14.4177 0.002 13.1677 1.252 13.1677 2.798C13.1677 3.444 13.3877 4.038 13.7557 4.51C14.2597 5.154 14.5657 5.93 14.5657 6.746V6.828C14.5657 7.784 14.1817 8.712 13.4777 9.362C12.8377 9.95 12.4077 10.764 12.3137 11.678C12.3117 11.694 12.3097 11.708 12.3097 11.724C12.3077 11.73 12.3077 11.736 12.3077 11.744C12.3057 11.748 12.3057 11.752 12.3057 11.758C12.3017 11.794 12.2997 11.83 12.2977 11.868C12.2957 11.932 12.2937 11.994 12.2937 12.058C12.2937 12.1 12.2937 12.142 12.2957 12.184C12.2957 12.192 12.2957 12.2 12.2977 12.21C12.2977 12.232 12.2997 12.254 12.2997 12.276C12.3017 12.286 12.3017 12.294 12.3017 12.302C12.3037 12.344 12.3077 12.384 12.3117 12.424C12.3117 12.43 12.3137 12.436 12.3137 12.44C12.3277 12.568 12.3477 12.692 12.3757 12.816C12.3757 12.82 12.3777 12.824 12.3777 12.828C12.3917 12.888 12.4037 12.95 12.4197 13.008C12.4317 13.05 12.4437 13.09 12.4557 13.13C12.4617 13.15 12.4677 13.17 12.4757 13.188C12.4877 13.23 12.5017 13.27 12.5177 13.31C12.5197 13.32 12.5237 13.328 12.5257 13.338C12.5297 13.348 12.5317 13.356 12.5357 13.366C12.5437 13.384 12.5497 13.4 12.5577 13.418C12.5677 13.442 12.5757 13.464 12.5857 13.486C12.5937 13.504 12.5997 13.524 12.6077 13.542C12.6177 13.564 12.6277 13.584 12.6377 13.606C12.6517 13.642 12.6697 13.678 12.6877 13.714C12.7037 13.746 12.7197 13.778 12.7377 13.808C12.7537 13.838 12.7717 13.87 12.7897 13.9C12.7957 13.914 12.8037 13.926 12.8117 13.938C12.8137 13.942 12.8177 13.948 12.8197 13.952C12.8197 13.954 12.8197 13.954 12.8197 13.956C13.1797 14.624 13.1937 15.46 12.7857 16.166C12.3777 16.874 11.6477 17.278 10.8877 17.302C10.9357 17.304 10.9817 17.306 11.0277 17.308C11.0737 17.31 11.1197 17.314 11.1657 17.32C11.2537 17.328 11.3417 17.34 11.4297 17.354C11.4897 17.364 11.5497 17.376 11.6117 17.39C11.6897 17.408 11.7697 17.428 11.8477 17.45C11.8917 17.464 11.9357 17.476 11.9797 17.492C12.0237 17.506 12.0677 17.522 12.1117 17.538C12.1537 17.554 12.1977 17.572 12.2397 17.59C12.4977 17.696 12.7417 17.834 12.9697 17.998C13.3257 17.744 13.6377 17.422 13.8877 17.04C13.9257 16.984 13.9617 16.924 13.9957 16.866C14.0297 16.806 14.0637 16.746 14.0937 16.684C14.2997 16.276 14.4217 15.846 14.4637 15.41C14.4637 15.408 14.4637 15.408 14.4637 15.406C14.4657 15.406 14.4677 15.408 14.4697 15.408C14.4817 15.284 14.4877 15.162 14.4877 15.038C14.4877 14.96 14.4857 14.882 14.4797 14.806C14.4757 14.734 14.4697 14.662 14.4597 14.592C14.4597 14.582 14.4577 14.572 14.4557 14.562C14.4477 14.488 14.4357 14.416 14.4217 14.344C14.4097 14.276 14.3937 14.21 14.3777 14.144C14.3737 14.13 14.3717 14.118 14.3677 14.104C14.3497 14.034 14.3297 13.964 14.3057 13.894C14.2817 13.822 14.2557 13.748 14.2277 13.676C14.1997 13.604 14.1677 13.534 14.1357 13.464C14.1017 13.394 14.0677 13.324 14.0297 13.256C14.0277 13.25 14.0237 13.246 14.0217 13.24C14.0137 13.228 14.0077 13.214 13.9997 13.2C13.9957 13.194 13.9917 13.188 13.9897 13.182C13.7997 12.85 13.6917 12.466 13.6917 12.058C13.6917 11.398 13.9717 10.804 14.4197 10.39C15.4117 9.472 15.9637 8.178 15.9637 6.826C15.9637 6.26 15.8797 5.694 15.7037 5.162C15.5277 4.628 15.2597 4.128 14.8937 3.696C14.6897 3.452 14.5657 3.138 14.5657 2.796C14.5657 2.022 15.1917 1.398 15.9637 1.398C16.7357 1.398 17.3617 2.022 17.3617 2.796C17.3617 3.138 17.2377 3.452 17.0337 3.696C16.6677 4.128 16.3997 4.628 16.2237 5.162C16.0477 5.694 15.9637 6.26 15.9637 6.826C15.9637 8.178 16.5157 9.472 17.5077 10.39C17.9557 10.804 18.2357 11.398 18.2357 12.058C18.2357 12.466 18.1277 12.85 17.9377 13.182C17.9697 13.128 18.0017 13.076 18.0357 13.026C18.0437 13.012 18.0517 12.998 18.0617 12.986C18.0797 12.96 18.0977 12.934 18.1177 12.91C18.1517 12.858 18.1897 12.808 18.2317 12.758C18.2417 12.742 18.2537 12.728 18.2657 12.714C18.2977 12.674 18.3317 12.634 18.3677 12.594C18.3697 12.592 18.3737 12.588 18.3757 12.584C18.3777 12.58 18.3817 12.576 18.3857 12.572C18.3917 12.566 18.3977 12.56 18.4037 12.552C18.4057 12.55 18.4077 12.548 18.4097 12.546C18.4277 12.526 18.4457 12.506 18.4657 12.488C18.4777 12.474 18.4897 12.46 18.5037 12.446L18.5097 12.44C18.5217 12.426 18.5337 12.414 18.5457 12.406C18.5537 12.396 18.5657 12.384 18.5777 12.376C18.5877 12.364 18.5977 12.356 18.6077 12.346C18.6177 12.336 18.6277 12.328 18.6377 12.318C18.6537 12.302 18.6697 12.288 18.6857 12.276C18.6937 12.27 18.7017 12.262 18.7097 12.254C18.7297 12.238 18.7517 12.22 18.7737 12.202C18.7837 12.19 18.7957 12.182 18.8077 12.172C18.8117 12.17 18.8137 12.168 18.8177 12.164C18.8337 12.15 18.8497 12.138 18.8637 12.128C18.8657 12.126 18.8697 12.124 18.8717 12.122C18.8777 12.116 18.8837 12.11 18.8917 12.106C18.9037 12.094 18.9177 12.086 18.9297 12.078C18.9557 12.056 18.9817 12.038 19.0077 12.022C19.0237 12.008 19.0397 11.998 19.0557 11.988C19.0657 11.98 19.0737 11.974 19.0837 11.97C19.1457 11.928 19.2097 11.888 19.2757 11.85C19.3237 11.82 19.3757 11.794 19.4257 11.768C19.4877 11.736 19.5497 11.706 19.6137 11.678Z" fill="url(#paint0_linear_3170_13811)"/>
<path d="M12.3115 11.6781C11.4735 11.3021 10.5535 11.2681 9.72351 11.5281C8.80951 11.8121 7.81351 11.6821 6.98551 11.2041L6.91351 11.1621C6.20751 10.7541 5.68751 10.1021 5.38151 9.34209C5.15751 8.78809 4.75151 8.30009 4.19351 7.97609C2.85751 7.20409 1.14951 7.66209 0.375507 9.00009C-0.396493 10.3401 0.0615071 12.0481 1.39951 12.8201C1.95951 13.1421 2.58351 13.2501 3.17551 13.1661C3.98551 13.0521 4.80951 13.1741 5.51751 13.5821L5.58951 13.6221C6.41751 14.1001 7.02951 14.8961 7.23951 15.8301C7.42951 16.6781 7.91951 17.4581 8.66351 17.9961C8.67551 18.0061 8.68751 18.0141 8.70151 18.0221C8.70551 18.0261 8.71151 18.0301 8.71751 18.0341C8.71951 18.0381 8.72351 18.0401 8.72951 18.0421C8.75951 18.0641 8.78951 18.0841 8.82151 18.1041C8.87551 18.1381 8.92951 18.1701 8.98351 18.2021C9.01951 18.2221 9.05551 18.2441 9.09351 18.2641C9.09951 18.2681 9.10751 18.2721 9.11751 18.2761C9.13751 18.2861 9.15751 18.2961 9.17551 18.3081C9.18551 18.3121 9.19151 18.3161 9.19951 18.3201C9.23751 18.3401 9.27351 18.3561 9.30951 18.3721C9.31551 18.3761 9.32151 18.3761 9.32351 18.3781C9.44151 18.4301 9.55951 18.4741 9.67951 18.5121C9.68351 18.5141 9.68751 18.5141 9.69151 18.5161C9.74951 18.5341 9.80951 18.5541 9.86751 18.5701C9.90951 18.5801 9.94951 18.5901 9.99151 18.6001C10.0115 18.6041 10.0315 18.6101 10.0515 18.6121C10.0935 18.6221 10.1355 18.6301 10.1775 18.6361C10.1875 18.6401 10.1955 18.6401 10.2055 18.6441C10.2155 18.6461 10.2235 18.6481 10.2355 18.6501C10.2555 18.6521 10.2715 18.6541 10.2915 18.6561C10.3175 18.6601 10.3395 18.6641 10.3635 18.6661C10.3835 18.6681 10.4035 18.6721 10.4235 18.6741C10.4475 18.6761 10.4695 18.6781 10.4935 18.6801C10.5315 18.6861 10.5715 18.6881 10.6115 18.6901C10.6475 18.6921 10.6835 18.6941 10.7175 18.6941C10.7515 18.6961 10.7875 18.6961 10.8235 18.6941C10.8395 18.6961 10.8535 18.6941 10.8675 18.6941C10.8715 18.6941 10.8795 18.6941 10.8835 18.6941C10.8855 18.6961 10.8855 18.6961 10.8875 18.6961C11.6455 18.7181 12.3775 19.1241 12.7835 19.8301C13.1935 20.5381 13.1775 21.3721 12.8175 22.0421C12.8435 22.0021 12.8675 21.9621 12.8935 21.9241C12.9175 21.8861 12.9455 21.8481 12.9735 21.8101C13.0235 21.7381 13.0795 21.6681 13.1355 21.5981C13.1735 21.5521 13.2155 21.5061 13.2575 21.4581C13.3115 21.4001 13.3695 21.3401 13.4275 21.2841C13.4615 21.2521 13.4935 21.2201 13.5295 21.1901C13.5635 21.1581 13.5995 21.1281 13.6355 21.0981C13.6695 21.0701 13.7075 21.0401 13.7435 21.0141C13.9635 20.8441 14.2055 20.7021 14.4615 20.5861C14.4195 20.1501 14.2975 19.7201 14.0915 19.3121C14.0615 19.2521 14.0275 19.1901 13.9955 19.1321C13.9615 19.0721 13.9255 19.0141 13.8875 18.9561C13.6375 18.5741 13.3255 18.2541 12.9695 17.9981C12.9675 17.9981 12.9675 17.9981 12.9655 17.9961C12.9655 17.9941 12.9695 17.9941 12.9695 17.9921C12.8675 17.9201 12.7655 17.8541 12.6575 17.7921C12.5895 17.7521 12.5215 17.7161 12.4535 17.6821C12.3895 17.6501 12.3235 17.6181 12.2575 17.5921C12.2495 17.5861 12.2395 17.5841 12.2295 17.5801C12.1615 17.5501 12.0935 17.5241 12.0235 17.5001C11.9595 17.4761 11.8935 17.4581 11.8275 17.4381C11.8135 17.4341 11.8015 17.4301 11.7875 17.4261C11.7175 17.4061 11.6475 17.3881 11.5755 17.3741C11.5015 17.3581 11.4235 17.3441 11.3475 17.3321C11.2715 17.3201 11.1955 17.3121 11.1175 17.3061C11.0395 17.3001 10.9615 17.2941 10.8835 17.2941C10.8775 17.2921 10.8715 17.2941 10.8655 17.2921C10.8515 17.2921 10.8355 17.2921 10.8215 17.2921C10.8135 17.2921 10.8075 17.2921 10.8015 17.2921C10.4195 17.2901 10.0315 17.1921 9.67951 16.9881C9.10751 16.6581 8.73351 16.1181 8.59951 15.5241C8.29951 14.2061 7.45551 13.0821 6.28551 12.4061C5.79551 12.1241 5.26351 11.9121 4.71551 11.8001C4.16551 11.6861 3.59751 11.6681 3.04151 11.7681C2.72751 11.8221 2.39351 11.7741 2.09751 11.6021C1.42751 11.2161 1.19951 10.3601 1.58551 9.69209C1.97151 9.02409 2.82551 8.79409 3.49551 9.18009C3.79151 9.35009 4.00151 9.61609 4.11151 9.91409C4.30351 10.4461 4.60151 10.9281 4.97551 11.3481C5.34751 11.7661 5.79551 12.1221 6.28551 12.4061C7.45551 13.0821 8.85351 13.2501 10.1435 12.8501C10.7255 12.6701 11.3795 12.7241 11.9515 13.0541C12.3055 13.2581 12.5835 13.5441 12.7755 13.8741C12.7455 13.8201 12.7155 13.7661 12.6895 13.7121C12.6815 13.6981 12.6735 13.6841 12.6675 13.6701C12.6535 13.6421 12.6395 13.6121 12.6295 13.5841C12.6015 13.5281 12.5775 13.4701 12.5555 13.4101C12.5475 13.3941 12.5415 13.3761 12.5335 13.3581C12.5155 13.3101 12.4975 13.2601 12.4815 13.2101C12.4815 13.2081 12.4795 13.2021 12.4775 13.1981C12.4755 13.1941 12.4735 13.1881 12.4715 13.1841C12.4695 13.1761 12.4675 13.1681 12.4635 13.1581C12.4635 13.1561 12.4615 13.1521 12.4615 13.1501C12.4535 13.1241 12.4455 13.0981 12.4395 13.0721C12.4335 13.0541 12.4275 13.0381 12.4215 13.0181L12.4195 13.0101C12.4135 12.9921 12.4095 12.9761 12.4075 12.9621C12.4035 12.9501 12.3975 12.9341 12.3975 12.9201C12.3915 12.9061 12.3895 12.8921 12.3855 12.8801C12.3815 12.8661 12.3795 12.8541 12.3755 12.8401C12.3695 12.8181 12.3655 12.7981 12.3635 12.7781C12.3615 12.7681 12.3595 12.7581 12.3555 12.7461C12.3515 12.7201 12.3475 12.6921 12.3435 12.6641C12.3375 12.6501 12.3375 12.6341 12.3335 12.6201C12.3335 12.6161 12.3335 12.6121 12.3315 12.6081C12.3275 12.5881 12.3255 12.5681 12.3235 12.5501C12.3235 12.5481 12.3235 12.5421 12.3215 12.5401C12.3195 12.5321 12.3175 12.5241 12.3175 12.5141C12.3135 12.4981 12.3135 12.4821 12.3115 12.4681C12.3055 12.4341 12.3035 12.4021 12.3015 12.3721C12.2975 12.3521 12.2975 12.3321 12.2955 12.3141C12.2935 12.3021 12.2915 12.2921 12.2935 12.2801C12.2875 12.2061 12.2855 12.1301 12.2855 12.0541C12.2835 11.9981 12.2875 11.9401 12.2895 11.8841C12.2995 11.8161 12.3035 11.7481 12.3115 11.6781Z" fill="url(#paint1_linear_3170_13811)"/>
<path d="M8.66155 18C7.91755 18.538 7.42755 19.318 7.23755 20.166C7.02755 21.1 6.41555 21.898 5.58755 22.376L5.51555 22.418C4.80955 22.826 3.98355 22.948 3.17355 22.834C2.58155 22.752 1.95555 22.858 1.39755 23.18C0.059554 23.952 -0.398446 25.66 0.373554 27C1.14755 28.338 2.85555 28.796 4.19355 28.022C4.75355 27.7 5.15755 27.212 5.38155 26.656C5.68755 25.898 6.20555 25.244 6.91355 24.836L6.98555 24.794C7.81355 24.316 8.80955 24.184 9.72355 24.47C10.5536 24.73 11.4716 24.696 12.3116 24.32C12.3256 24.314 12.3396 24.308 12.3536 24.3C12.3596 24.298 12.3656 24.296 12.3716 24.292C12.3756 24.292 12.3796 24.29 12.3856 24.286C12.4196 24.272 12.4516 24.256 12.4856 24.238C12.5416 24.208 12.5976 24.178 12.6516 24.146C12.6876 24.126 12.7236 24.104 12.7596 24.082C12.7656 24.078 12.7736 24.074 12.7816 24.068C12.8016 24.058 12.8196 24.044 12.8376 24.034C12.8456 24.028 12.8516 24.024 12.8596 24.02C12.8956 23.998 12.9276 23.974 12.9596 23.95C12.9656 23.946 12.9696 23.942 12.9716 23.94C13.0756 23.864 13.1736 23.784 13.2656 23.698C13.2696 23.696 13.2716 23.692 13.2756 23.69C13.3196 23.648 13.3676 23.606 13.4096 23.564C13.4396 23.532 13.4676 23.502 13.4976 23.472C13.5116 23.456 13.5256 23.442 13.5376 23.426C13.5676 23.394 13.5956 23.362 13.6216 23.328C13.6296 23.322 13.6336 23.314 13.6416 23.308C13.6476 23.3 13.6536 23.294 13.6616 23.286C13.6736 23.27 13.6836 23.256 13.6956 23.24C13.7116 23.22 13.7256 23.202 13.7396 23.182C13.7516 23.166 13.7656 23.15 13.7776 23.134C13.7916 23.114 13.8036 23.096 13.8176 23.076C13.8416 23.046 13.8636 23.012 13.8856 22.978C13.9056 22.948 13.9256 22.918 13.9416 22.888C13.9596 22.86 13.9776 22.828 13.9956 22.796C14.0056 22.784 14.0116 22.77 14.0176 22.758C14.0196 22.754 14.0236 22.748 14.0256 22.744C14.0276 22.742 14.0276 22.742 14.0296 22.742C14.4276 22.096 15.1456 21.666 15.9596 21.666C16.7776 21.666 17.4916 22.096 17.8916 22.742C17.8696 22.7 17.8476 22.658 17.8276 22.618C17.8056 22.578 17.7876 22.536 17.7696 22.492C17.7316 22.412 17.6996 22.33 17.6676 22.246C17.6456 22.19 17.6276 22.132 17.6076 22.07C17.5836 21.994 17.5616 21.914 17.5416 21.836C17.5316 21.79 17.5196 21.746 17.5116 21.7C17.5016 21.654 17.4936 21.608 17.4856 21.562C17.4776 21.518 17.4716 21.47 17.4676 21.426C17.4296 21.15 17.4276 20.87 17.4556 20.59C17.0576 20.408 16.6236 20.3 16.1676 20.274C16.0996 20.27 16.0296 20.268 15.9636 20.268C15.8956 20.268 15.8256 20.27 15.7576 20.274C15.3016 20.3 14.8676 20.408 14.4696 20.59C14.4676 20.59 14.4676 20.59 14.4656 20.592C14.4656 20.59 14.4656 20.588 14.4636 20.586C14.3496 20.638 14.2416 20.694 14.1336 20.756C14.0656 20.794 13.9996 20.836 13.9376 20.878C13.8776 20.918 13.8176 20.958 13.7616 21.002C13.7536 21.008 13.7456 21.014 13.7376 21.02C13.6776 21.064 13.6216 21.11 13.5656 21.158C13.5136 21.202 13.4636 21.25 13.4136 21.296C13.4036 21.306 13.3936 21.314 13.3836 21.324C13.3316 21.374 13.2816 21.426 13.2336 21.482C13.1836 21.538 13.1316 21.598 13.0836 21.658C13.0356 21.718 12.9916 21.78 12.9456 21.844C12.9016 21.908 12.8576 21.972 12.8176 22.04C12.8136 22.044 12.8116 22.05 12.8076 22.054C12.8016 22.066 12.7916 22.08 12.7856 22.092C12.7816 22.098 12.7796 22.104 12.7756 22.11C12.5836 22.44 12.3036 22.726 11.9516 22.93C11.3796 23.26 10.7256 23.314 10.1436 23.134C8.85355 22.734 7.45555 22.902 6.28555 23.578C5.79555 23.86 5.34755 24.216 4.97555 24.636C4.60155 25.056 4.30155 25.538 4.11155 26.07C4.00155 26.368 3.79155 26.632 3.49555 26.804C2.82555 27.19 1.97155 26.96 1.58555 26.292C1.19955 25.624 1.42755 24.77 2.09755 24.382C2.39355 24.212 2.72755 24.162 3.04155 24.216C3.59955 24.316 4.16555 24.3 4.71555 24.184C5.26355 24.07 5.79555 23.86 6.28555 23.578C7.45555 22.902 8.30155 21.778 8.59955 20.46C8.73355 19.866 9.10755 19.326 9.67955 18.996C10.0336 18.792 10.4196 18.694 10.8016 18.692C10.7396 18.692 10.6776 18.69 10.6176 18.686C10.6016 18.686 10.5856 18.686 10.5696 18.684C10.5376 18.682 10.5056 18.678 10.4756 18.674C10.4136 18.67 10.3516 18.662 10.2876 18.652C10.2696 18.652 10.2516 18.648 10.2316 18.644C10.1816 18.636 10.1296 18.626 10.0776 18.616C10.0756 18.616 10.0696 18.614 10.0656 18.614C10.0616 18.614 10.0556 18.612 10.0496 18.612C10.0416 18.61 10.0336 18.608 10.0236 18.606C10.0216 18.606 10.0176 18.604 10.0156 18.604C9.98956 18.598 9.96355 18.592 9.93755 18.584C9.91955 18.58 9.90155 18.578 9.88155 18.572L9.87355 18.57C9.85555 18.566 9.83955 18.562 9.82555 18.556C9.81355 18.554 9.79555 18.55 9.78355 18.544C9.76755 18.542 9.75555 18.536 9.74155 18.534C9.72755 18.53 9.71555 18.526 9.70155 18.522C9.67955 18.516 9.65955 18.51 9.64155 18.502C9.63155 18.498 9.62155 18.496 9.60955 18.492C9.58555 18.482 9.55955 18.472 9.53155 18.462C9.51555 18.46 9.50355 18.452 9.48755 18.448C9.48355 18.446 9.48155 18.444 9.47555 18.444C9.45555 18.438 9.43755 18.43 9.42155 18.422C9.41955 18.422 9.41556 18.418 9.41155 18.418C9.40355 18.416 9.39555 18.414 9.38755 18.408C9.37155 18.404 9.35755 18.396 9.34355 18.39C9.31155 18.378 9.28355 18.364 9.25555 18.35C9.23555 18.344 9.21955 18.334 9.20155 18.326C9.18955 18.322 9.17955 18.318 9.17155 18.31C9.10355 18.278 9.03755 18.242 8.97155 18.204C8.92155 18.178 8.87355 18.146 8.82555 18.116C8.77555 18.08 8.71756 18.042 8.66155 18Z" fill="url(#paint2_linear_3170_13811)"/>
<path d="M12.3135 24.322C12.4075 25.236 12.8375 26.05 13.4775 26.638C14.1815 27.288 14.5655 28.216 14.5655 29.172V29.254C14.5655 30.07 14.2595 30.846 13.7555 31.49C13.3875 31.962 13.1675 32.556 13.1675 33.202C13.1675 34.748 14.4175 35.998 15.9635 36C17.5095 35.998 18.7595 34.748 18.7595 33.202C18.7595 32.556 18.5395 31.962 18.1715 31.49C17.6675 30.846 17.3615 30.07 17.3615 29.254V29.172C17.3615 28.216 17.7455 27.288 18.4495 26.638C19.0895 26.05 19.5195 25.236 19.6135 24.322C19.6155 24.306 19.6175 24.292 19.6175 24.276C19.6195 24.27 19.6195 24.264 19.6195 24.256C19.6215 24.252 19.6215 24.248 19.6215 24.242C19.6255 24.206 19.6275 24.17 19.6295 24.132C19.6315 24.068 19.6335 24.006 19.6335 23.942C19.6335 23.9 19.6335 23.858 19.6315 23.816C19.6315 23.808 19.6315 23.8 19.6295 23.79C19.6295 23.768 19.6275 23.746 19.6275 23.724C19.6255 23.714 19.6255 23.706 19.6255 23.698C19.6235 23.656 19.6195 23.616 19.6155 23.576C19.6155 23.57 19.6135 23.564 19.6135 23.56C19.5995 23.432 19.5795 23.308 19.5515 23.184C19.5515 23.18 19.5495 23.176 19.5495 23.172C19.5355 23.112 19.5235 23.05 19.5075 22.992C19.4955 22.95 19.4835 22.91 19.4715 22.87C19.4655 22.85 19.4595 22.83 19.4515 22.812C19.4395 22.77 19.4255 22.73 19.4095 22.69C19.4075 22.68 19.4035 22.672 19.4015 22.662C19.3975 22.652 19.3955 22.644 19.3915 22.634C19.3835 22.616 19.3775 22.6 19.3695 22.582C19.3595 22.558 19.3515 22.536 19.3415 22.514C19.3335 22.496 19.3275 22.476 19.3195 22.458C19.3095 22.436 19.2995 22.416 19.2895 22.394C19.2755 22.358 19.2575 22.322 19.2395 22.286C19.2235 22.254 19.2075 22.222 19.1895 22.192C19.1735 22.162 19.1555 22.13 19.1375 22.1C19.1315 22.086 19.1235 22.074 19.1155 22.062C19.1135 22.058 19.1095 22.052 19.1075 22.048C19.1075 22.046 19.1075 22.046 19.1075 22.044C18.7475 21.376 18.7335 20.54 19.1415 19.834C19.5495 19.126 20.2795 18.722 21.0395 18.698C20.9915 18.696 20.9455 18.694 20.8995 18.692C20.8535 18.69 20.8075 18.686 20.7615 18.68C20.6735 18.672 20.5855 18.66 20.4975 18.646C20.4375 18.636 20.3775 18.624 20.3155 18.61C20.2375 18.592 20.1575 18.572 20.0795 18.55C20.0355 18.536 19.9915 18.524 19.9475 18.508C19.9035 18.494 19.8595 18.478 19.8155 18.462C19.7735 18.446 19.7295 18.428 19.6875 18.41C19.4295 18.304 19.1855 18.166 18.9575 18.002C18.6015 18.256 18.2895 18.578 18.0395 18.96C18.0015 19.016 17.9655 19.076 17.9315 19.134C17.8975 19.194 17.8635 19.254 17.8335 19.316C17.6275 19.724 17.5055 20.154 17.4635 20.59C17.4635 20.592 17.4635 20.592 17.4635 20.594C17.4615 20.594 17.4595 20.592 17.4575 20.592C17.4455 20.716 17.4395 20.838 17.4395 20.962C17.4395 21.04 17.4415 21.118 17.4475 21.194C17.4515 21.266 17.4575 21.338 17.4675 21.408C17.4675 21.418 17.4695 21.428 17.4715 21.438C17.4795 21.512 17.4915 21.584 17.5055 21.656C17.5175 21.724 17.5335 21.79 17.5495 21.856C17.5535 21.87 17.5555 21.882 17.5595 21.896C17.5775 21.966 17.5975 22.036 17.6215 22.106C17.6455 22.178 17.6715 22.252 17.6995 22.324C17.7275 22.396 17.7595 22.466 17.7915 22.536C17.8255 22.606 17.8595 22.676 17.8975 22.744C17.8995 22.75 17.9035 22.754 17.9055 22.76C17.9135 22.772 17.9195 22.786 17.9275 22.798C17.9315 22.804 17.9355 22.81 17.9375 22.816C18.1275 23.148 18.2355 23.532 18.2355 23.94C18.2355 24.6 17.9555 25.194 17.5075 25.608C16.5155 26.526 15.9635 27.82 15.9635 29.172C15.9635 29.738 16.0475 30.304 16.2235 30.836C16.3995 31.37 16.6675 31.87 17.0335 32.302C17.2375 32.546 17.3615 32.86 17.3615 33.202C17.3615 33.976 16.7355 34.6 15.9635 34.6C15.1915 34.6 14.5655 33.976 14.5655 33.202C14.5655 32.86 14.6895 32.546 14.8935 32.302C15.2595 31.87 15.5275 31.37 15.7035 30.836C15.8795 30.304 15.9635 29.738 15.9635 29.172C15.9635 27.82 15.4115 26.526 14.4195 25.608C13.9715 25.194 13.6915 24.6 13.6915 23.94C13.6915 23.532 13.7995 23.148 13.9895 22.816C13.9575 22.87 13.9255 22.922 13.8915 22.972C13.8835 22.986 13.8755 23 13.8655 23.012C13.8475 23.038 13.8295 23.064 13.8095 23.088C13.7755 23.14 13.7375 23.19 13.6955 23.24C13.6855 23.256 13.6735 23.27 13.6615 23.284C13.6295 23.324 13.5955 23.364 13.5595 23.404C13.5575 23.406 13.5535 23.41 13.5515 23.414C13.5495 23.418 13.5455 23.422 13.5415 23.426C13.5355 23.432 13.5295 23.438 13.5235 23.446C13.5215 23.448 13.5195 23.45 13.5175 23.452C13.4995 23.472 13.4815 23.492 13.4615 23.51C13.4495 23.524 13.4375 23.538 13.4235 23.552L13.4175 23.558C13.4055 23.572 13.3935 23.584 13.3815 23.592C13.3735 23.602 13.3615 23.614 13.3495 23.622C13.3395 23.634 13.3295 23.642 13.3195 23.652C13.3095 23.662 13.2995 23.67 13.2895 23.68C13.2735 23.696 13.2575 23.71 13.2415 23.722C13.2335 23.728 13.2255 23.736 13.2175 23.744C13.1975 23.76 13.1755 23.778 13.1535 23.796C13.1435 23.808 13.1315 23.816 13.1195 23.826C13.1155 23.828 13.1135 23.83 13.1095 23.834C13.0935 23.848 13.0775 23.86 13.0635 23.87C13.0615 23.872 13.0575 23.874 13.0555 23.876C13.0495 23.882 13.0435 23.888 13.0355 23.892C13.0235 23.904 13.0095 23.912 12.9975 23.92C12.9715 23.942 12.9455 23.96 12.9195 23.976C12.9035 23.99 12.8875 24 12.8715 24.01C12.8615 24.018 12.8535 24.024 12.8435 24.028C12.7815 24.07 12.7175 24.11 12.6515 24.148C12.6035 24.178 12.5515 24.204 12.5015 24.23C12.4395 24.264 12.3775 24.294 12.3135 24.322Z" fill="url(#paint3_linear_3170_13811)"/>
<path d="M19.6134 24.3221C20.4514 24.6981 21.3714 24.7321 22.2014 24.4721C23.1154 24.1881 24.1114 24.3181 24.9394 24.7961L25.0094 24.8381C25.7154 25.2461 26.2354 25.8981 26.5414 26.6581C26.7654 27.2121 27.1714 27.7001 27.7294 28.0241C29.0674 28.7961 30.7754 28.3401 31.5494 27.0021C32.3214 25.6621 31.8634 23.9541 30.5254 23.1821C29.9654 22.8601 29.3414 22.7521 28.7494 22.8361C27.9394 22.9501 27.1154 22.8281 26.4074 22.4201L26.3354 22.3781C25.5074 21.9001 24.8954 21.1041 24.6854 20.1701C24.4954 19.3221 24.0054 18.5421 23.2614 18.0041C23.2494 17.9941 23.2374 17.9861 23.2234 17.9781C23.2194 17.9741 23.2134 17.9701 23.2074 17.9661C23.2054 17.9621 23.2014 17.9601 23.1954 17.9581C23.1654 17.9361 23.1354 17.9161 23.1034 17.8961C23.0494 17.8621 22.9954 17.8301 22.9414 17.7981C22.9054 17.7781 22.8694 17.7561 22.8314 17.7361C22.8254 17.7321 22.8174 17.7281 22.8074 17.7241C22.7874 17.7141 22.7674 17.7041 22.7494 17.6921C22.7394 17.6881 22.7334 17.6841 22.7254 17.6801C22.6874 17.6601 22.6514 17.6441 22.6154 17.6281C22.6094 17.6241 22.6034 17.6241 22.6014 17.6221C22.4834 17.5701 22.3654 17.5261 22.2454 17.4881C22.2414 17.4861 22.2374 17.4861 22.2334 17.4841C22.1754 17.4661 22.1154 17.4461 22.0574 17.4301C22.0154 17.4201 21.9754 17.4101 21.9334 17.4001C21.9134 17.3961 21.8934 17.3901 21.8734 17.3881C21.8314 17.3781 21.7894 17.3701 21.7474 17.3641C21.7374 17.3601 21.7294 17.3601 21.7194 17.3561C21.7094 17.3541 21.7014 17.3521 21.6894 17.3501C21.6694 17.3481 21.6534 17.3461 21.6334 17.3421C21.6074 17.3381 21.5854 17.3341 21.5614 17.3321C21.5414 17.3301 21.5214 17.3261 21.5014 17.3241C21.4774 17.3221 21.4554 17.3201 21.4314 17.3181C21.3934 17.3121 21.3534 17.3101 21.3134 17.3081C21.2774 17.3061 21.2414 17.3041 21.2074 17.3041C21.1734 17.3021 21.1374 17.3021 21.1014 17.3041C21.0854 17.3021 21.0714 17.3041 21.0574 17.3041C21.0534 17.3041 21.0454 17.3041 21.0414 17.3041C21.0394 17.3021 21.0394 17.3021 21.0374 17.3021C20.2794 17.2801 19.5474 16.8741 19.1414 16.1681C18.7314 15.4601 18.7474 14.6261 19.1074 13.9561C19.0814 13.9961 19.0574 14.0361 19.0314 14.0741C19.0074 14.1121 18.9794 14.1501 18.9514 14.1881C18.9014 14.2601 18.8454 14.3301 18.7894 14.4001C18.7514 14.4461 18.7094 14.4921 18.6674 14.5401C18.6134 14.5981 18.5554 14.6581 18.4974 14.7141C18.4634 14.7461 18.4314 14.7781 18.3954 14.8081C18.3614 14.8401 18.3254 14.8701 18.2894 14.9001C18.2554 14.9281 18.2174 14.9581 18.1814 14.9841C17.9614 15.1541 17.7194 15.2961 17.4634 15.4121C17.5054 15.8481 17.6274 16.2781 17.8334 16.6861C17.8634 16.7461 17.8974 16.8081 17.9294 16.8661C17.9634 16.9261 17.9994 16.9841 18.0374 17.0421C18.2874 17.4241 18.5994 17.7441 18.9554 18.0001C18.9574 18.0001 18.9574 18.0001 18.9594 18.0021C18.9574 18.0041 18.9554 18.0041 18.9554 18.0061C19.0574 18.0781 19.1594 18.1441 19.2674 18.2061C19.3354 18.2461 19.4034 18.2821 19.4714 18.3161C19.5354 18.3481 19.6014 18.3801 19.6674 18.4061C19.6754 18.4121 19.6854 18.4141 19.6954 18.4181C19.7634 18.4481 19.8314 18.4741 19.9014 18.4981C19.9654 18.5221 20.0314 18.5401 20.0974 18.5601C20.1114 18.5641 20.1234 18.5681 20.1374 18.5721C20.2074 18.5921 20.2774 18.6101 20.3494 18.6241C20.4234 18.6401 20.5014 18.6541 20.5774 18.6661C20.6534 18.6781 20.7294 18.6861 20.8074 18.6921C20.8854 18.6981 20.9634 18.7041 21.0414 18.7041C21.0474 18.7061 21.0534 18.7041 21.0594 18.7061C21.0734 18.7061 21.0894 18.7061 21.1034 18.7061C21.1114 18.7061 21.1174 18.7061 21.1234 18.7061C21.5054 18.7081 21.8934 18.8061 22.2454 19.0101C22.8174 19.3401 23.1914 19.8801 23.3254 20.4741C23.6254 21.7921 24.4694 22.9161 25.6394 23.5921C26.1294 23.8741 26.6614 24.0861 27.2094 24.1981C27.7594 24.3121 28.3274 24.3301 28.8834 24.2301C29.1974 24.1761 29.5314 24.2241 29.8274 24.3961C30.4974 24.7821 30.7254 25.6381 30.3394 26.3061C29.9534 26.9741 29.0994 27.2041 28.4294 26.8181C28.1334 26.6481 27.9234 26.3821 27.8134 26.0841C27.6214 25.5521 27.3234 25.0701 26.9494 24.6501C26.5774 24.2321 26.1294 23.8761 25.6394 23.5921C24.4694 22.9161 23.0714 22.7481 21.7814 23.1481C21.1994 23.3281 20.5454 23.2741 19.9734 22.9441C19.6194 22.7401 19.3414 22.4541 19.1494 22.1241C19.1794 22.1781 19.2094 22.2321 19.2354 22.2861C19.2434 22.3001 19.2514 22.3141 19.2574 22.3281C19.2714 22.3561 19.2854 22.3861 19.2954 22.4141C19.3234 22.4701 19.3474 22.5281 19.3694 22.5881C19.3774 22.6041 19.3834 22.6221 19.3914 22.6401C19.4094 22.6881 19.4274 22.7381 19.4434 22.7881C19.4434 22.7901 19.4454 22.7961 19.4474 22.8001C19.4494 22.8041 19.4514 22.8101 19.4534 22.8141C19.4554 22.8221 19.4574 22.8301 19.4614 22.8401C19.4614 22.8421 19.4634 22.8461 19.4634 22.8481C19.4714 22.8741 19.4794 22.9001 19.4854 22.9261C19.4914 22.9441 19.4974 22.9601 19.5034 22.9801L19.5054 22.9881C19.5114 23.0061 19.5154 23.0221 19.5174 23.0361C19.5214 23.0481 19.5274 23.0641 19.5274 23.0781C19.5334 23.0921 19.5354 23.1061 19.5394 23.1201C19.5434 23.1341 19.5454 23.1461 19.5494 23.1601C19.5554 23.1821 19.5594 23.2021 19.5614 23.2221C19.5634 23.2321 19.5654 23.2421 19.5694 23.2541C19.5734 23.2801 19.5774 23.3081 19.5814 23.3361C19.5874 23.3501 19.5874 23.3661 19.5914 23.3801C19.5914 23.3841 19.5914 23.3881 19.5934 23.3921C19.5974 23.4121 19.5994 23.4321 19.6014 23.4501C19.6014 23.4521 19.6014 23.4581 19.6034 23.4601C19.6054 23.4681 19.6074 23.4761 19.6074 23.4861C19.6114 23.5021 19.6114 23.5181 19.6134 23.5321C19.6194 23.5661 19.6214 23.5981 19.6234 23.6281C19.6274 23.6481 19.6274 23.6681 19.6294 23.6861C19.6314 23.6981 19.6334 23.7081 19.6314 23.7201C19.6374 23.7941 19.6394 23.8701 19.6394 23.9461C19.6414 24.0021 19.6374 24.0601 19.6354 24.1161C19.6254 24.1841 19.6214 24.2521 19.6134 24.3221Z" fill="url(#paint4_linear_3170_13811)"/>
<path d="M23.2637 18C24.0077 17.462 24.4977 16.682 24.6877 15.834C24.8977 14.9 25.5097 14.102 26.3377 13.624L26.4097 13.582C27.1157 13.174 27.9417 13.052 28.7517 13.166C29.3437 13.248 29.9697 13.142 30.5277 12.82C31.8657 12.048 32.3237 10.34 31.5517 8.99998C30.7777 7.66198 29.0697 7.20398 27.7317 7.97798C27.1717 8.29998 26.7677 8.78798 26.5437 9.34398C26.2377 10.102 25.7197 10.756 25.0117 11.164L24.9397 11.206C24.1117 11.684 23.1157 11.816 22.2017 11.53C21.3717 11.27 20.4537 11.304 19.6137 11.68C19.5997 11.686 19.5857 11.692 19.5717 11.7C19.5657 11.702 19.5597 11.704 19.5537 11.708C19.5497 11.708 19.5457 11.71 19.5397 11.714C19.5057 11.728 19.4737 11.744 19.4397 11.762C19.3837 11.792 19.3277 11.822 19.2737 11.854C19.2377 11.874 19.2017 11.896 19.1657 11.918C19.1597 11.922 19.1517 11.926 19.1437 11.932C19.1237 11.942 19.1057 11.956 19.0877 11.966C19.0797 11.972 19.0737 11.976 19.0657 11.98C19.0297 12.002 18.9977 12.026 18.9657 12.05C18.9597 12.054 18.9557 12.058 18.9537 12.06C18.8497 12.136 18.7517 12.216 18.6597 12.302C18.6557 12.304 18.6537 12.308 18.6497 12.31C18.6057 12.352 18.5577 12.394 18.5157 12.436C18.4857 12.468 18.4577 12.498 18.4277 12.528C18.4137 12.544 18.3997 12.558 18.3877 12.574C18.3577 12.606 18.3297 12.638 18.3037 12.672C18.2957 12.678 18.2917 12.686 18.2837 12.692C18.2777 12.7 18.2717 12.706 18.2637 12.714C18.2517 12.73 18.2417 12.744 18.2297 12.76C18.2137 12.78 18.1997 12.798 18.1857 12.818C18.1737 12.834 18.1597 12.85 18.1477 12.866C18.1337 12.886 18.1217 12.904 18.1077 12.924C18.0837 12.954 18.0617 12.988 18.0397 13.022C18.0197 13.052 17.9997 13.082 17.9837 13.112C17.9657 13.14 17.9477 13.172 17.9297 13.204C17.9197 13.216 17.9137 13.23 17.9077 13.242C17.9057 13.246 17.9017 13.252 17.8997 13.256C17.8977 13.258 17.8977 13.258 17.8957 13.258C17.4977 13.904 16.7797 14.334 15.9657 14.334C15.1477 14.334 14.4337 13.904 14.0337 13.258C14.0557 13.3 14.0777 13.342 14.0977 13.382C14.1197 13.422 14.1377 13.464 14.1557 13.508C14.1937 13.588 14.2257 13.67 14.2577 13.754C14.2797 13.81 14.2977 13.868 14.3177 13.93C14.3417 14.006 14.3637 14.086 14.3837 14.164C14.3937 14.21 14.4057 14.254 14.4137 14.3C14.4237 14.346 14.4317 14.392 14.4397 14.438C14.4477 14.482 14.4537 14.53 14.4597 14.574C14.4977 14.85 14.4997 15.13 14.4717 15.41C14.8697 15.592 15.3037 15.7 15.7597 15.726C15.8277 15.73 15.8977 15.732 15.9637 15.732C16.0317 15.732 16.1017 15.73 16.1697 15.726C16.6257 15.7 17.0597 15.592 17.4577 15.41C17.4597 15.41 17.4597 15.41 17.4617 15.408C17.4637 15.41 17.4617 15.412 17.4637 15.414C17.5777 15.362 17.6857 15.306 17.7937 15.244C17.8617 15.206 17.9277 15.164 17.9897 15.122C18.0497 15.082 18.1097 15.042 18.1657 14.998C18.1737 14.992 18.1817 14.986 18.1897 14.98C18.2497 14.936 18.3057 14.89 18.3617 14.842C18.4137 14.798 18.4637 14.75 18.5137 14.704C18.5237 14.694 18.5337 14.686 18.5437 14.676C18.5957 14.626 18.6457 14.574 18.6937 14.518C18.7437 14.462 18.7957 14.402 18.8437 14.342C18.8917 14.282 18.9357 14.22 18.9817 14.156C19.0257 14.092 19.0697 14.028 19.1097 13.96C19.1137 13.956 19.1157 13.95 19.1197 13.946C19.1257 13.934 19.1357 13.92 19.1417 13.908C19.1457 13.902 19.1477 13.896 19.1517 13.89C19.3437 13.56 19.6237 13.274 19.9757 13.07C20.5477 12.74 21.2017 12.686 21.7837 12.866C23.0737 13.266 24.4717 13.098 25.6417 12.422C26.1317 12.14 26.5797 11.784 26.9517 11.364C27.3257 10.944 27.6257 10.462 27.8157 9.92998C27.9257 9.63198 28.1357 9.36798 28.4317 9.19598C29.1017 8.80998 29.9557 9.03998 30.3417 9.70798C30.7277 10.376 30.4997 11.23 29.8297 11.618C29.5337 11.788 29.1997 11.838 28.8857 11.784C28.3277 11.684 27.7617 11.7 27.2117 11.816C26.6637 11.93 26.1317 12.14 25.6417 12.422C24.4717 13.098 23.6257 14.222 23.3277 15.54C23.1937 16.134 22.8197 16.674 22.2477 17.004C21.8937 17.208 21.5077 17.306 21.1257 17.308C21.1877 17.308 21.2497 17.31 21.3097 17.314C21.3257 17.314 21.3417 17.314 21.3577 17.316C21.3897 17.318 21.4217 17.322 21.4517 17.326C21.5137 17.33 21.5757 17.338 21.6397 17.348C21.6577 17.348 21.6757 17.352 21.6957 17.356C21.7457 17.364 21.7977 17.374 21.8497 17.384C21.8517 17.384 21.8577 17.386 21.8617 17.386C21.8657 17.386 21.8717 17.388 21.8777 17.388C21.8857 17.39 21.8937 17.392 21.9037 17.394C21.9057 17.394 21.9097 17.396 21.9117 17.396C21.9377 17.402 21.9637 17.408 21.9897 17.416C22.0077 17.42 22.0257 17.422 22.0457 17.428L22.0537 17.43C22.0717 17.434 22.0877 17.438 22.1017 17.444C22.1137 17.446 22.1317 17.45 22.1437 17.456C22.1597 17.458 22.1717 17.464 22.1857 17.466C22.1997 17.47 22.2117 17.474 22.2257 17.478C22.2477 17.484 22.2677 17.49 22.2857 17.498C22.2957 17.502 22.3057 17.504 22.3177 17.508C22.3417 17.518 22.3677 17.528 22.3957 17.538C22.4117 17.54 22.4237 17.548 22.4397 17.552C22.4437 17.554 22.4457 17.556 22.4517 17.556C22.4717 17.562 22.4897 17.57 22.5057 17.578C22.5077 17.578 22.5117 17.582 22.5157 17.582C22.5237 17.584 22.5317 17.586 22.5397 17.592C22.5557 17.596 22.5697 17.604 22.5837 17.61C22.6157 17.622 22.6437 17.636 22.6717 17.65C22.6917 17.656 22.7077 17.666 22.7257 17.674C22.7377 17.678 22.7477 17.682 22.7557 17.69C22.8237 17.722 22.8897 17.758 22.9557 17.796C23.0057 17.822 23.0537 17.854 23.1017 17.884C23.1497 17.92 23.2077 17.958 23.2637 18Z" fill="url(#paint5_linear_3170_13811)"/>
<path d="M1.58777 9.70007C1.97377 9.03207 2.82777 8.80207 3.49777 9.18807C3.79377 9.36007 4.00377 9.62407 4.11377 9.92207C4.30377 10.4561 4.60377 10.9381 4.97777 11.3581C5.35177 11.7761 5.79977 12.1321 6.28977 12.4141C7.45977 13.0901 8.85577 13.2601 10.1478 12.8601C10.7298 12.6781 11.3838 12.7321 11.9558 13.0621C12.3098 13.2661 12.5878 13.5521 12.7798 13.8841C12.7498 13.8281 12.7218 13.7741 12.6938 13.7201C12.6858 13.7061 12.6778 13.6921 12.6738 13.6781C12.6598 13.6501 12.6458 13.6201 12.6358 13.5921C12.6078 13.5361 12.5818 13.4781 12.5598 13.4161C12.5518 13.4001 12.5458 13.3821 12.5398 13.3641C12.5198 13.3181 12.5038 13.2681 12.4858 13.2161C12.4858 13.2141 12.4838 13.2081 12.4818 13.2041C12.4798 13.2001 12.4778 13.1961 12.4758 13.1901C12.4738 13.1821 12.4718 13.1741 12.4678 13.1641C12.4678 13.1621 12.4658 13.1601 12.4658 13.1561C12.4578 13.1301 12.4498 13.1061 12.4438 13.0781C12.4378 13.0621 12.4318 13.0441 12.4258 13.0241L12.4238 13.0161C12.4178 13.0001 12.4138 12.9821 12.4118 12.9681C12.4078 12.9561 12.4038 12.9401 12.4018 12.9261C12.3978 12.9121 12.3958 12.8981 12.3918 12.8841C12.3878 12.8721 12.3858 12.8581 12.3818 12.8441C12.3758 12.8221 12.3718 12.8021 12.3698 12.7821C12.3678 12.7721 12.3658 12.7621 12.3638 12.7501C12.3598 12.7261 12.3538 12.6981 12.3498 12.6701C12.3438 12.6541 12.3438 12.6401 12.3418 12.6241C12.3418 12.6201 12.3398 12.6181 12.3398 12.6121C12.3358 12.5921 12.3318 12.5721 12.3318 12.5541C12.3298 12.5521 12.3298 12.5461 12.3298 12.5441C12.3278 12.5361 12.3258 12.5281 12.3258 12.5181C12.3218 12.5021 12.3218 12.4861 12.3198 12.4721C12.3138 12.4381 12.3118 12.4061 12.3118 12.3761C12.3078 12.3561 12.3058 12.3361 12.3058 12.3181C12.3038 12.3061 12.3018 12.2961 12.3038 12.2841C12.2978 12.2101 12.2958 12.1341 12.2958 12.0581C12.2938 12.0021 12.2978 11.9441 12.2998 11.8881C12.3018 11.8161 12.3058 11.7481 12.3138 11.6781C11.4758 11.3021 10.5558 11.2681 9.72577 11.5281C8.81177 11.8141 7.81577 11.6821 6.98777 11.2041L6.91777 11.1621C6.20977 10.7541 5.69177 10.1021 5.38577 9.34407C5.16177 8.78807 4.75577 8.30207 4.19777 7.97807C2.85577 7.20607 1.14977 7.66207 0.375766 9.00007C0.331766 9.07607 0.293766 9.15207 0.259766 9.23007L1.58777 9.70007Z" fill="url(#paint6_linear_3170_13811)"/>
<path d="M18.8117 14.3702C18.7737 14.4182 18.7317 14.4662 18.6917 14.5102C18.6437 14.5662 18.5917 14.6182 18.5417 14.6682C18.5317 14.6802 18.5217 14.6862 18.5117 14.6982C18.4617 14.7442 18.4137 14.7922 18.3597 14.8362C18.3057 14.8842 18.2477 14.9302 18.1877 14.9742C18.1797 14.9802 18.1737 14.9882 18.1637 14.9922C18.1077 15.0362 18.0497 15.0782 17.9897 15.1162C17.9257 15.1602 17.8597 15.2002 17.7917 15.2402C17.6837 15.3022 17.5757 15.3582 17.4617 15.4102V15.4022C17.4597 15.4042 17.4597 15.4042 17.4577 15.4042C17.0597 15.5862 16.6257 15.6962 16.1697 15.7222C16.1017 15.7262 16.0317 15.7282 15.9637 15.7282C15.8957 15.7282 15.8257 15.7262 15.7577 15.7222C15.3017 15.6962 14.8677 15.5862 14.4697 15.4062C14.4977 15.1262 14.4957 14.8462 14.4577 14.5682C14.4517 14.5242 14.4457 14.4762 14.4397 14.4322C14.4317 14.3862 14.4237 14.3402 14.4137 14.2942C14.4037 14.2482 14.3937 14.2042 14.3837 14.1602C14.3637 14.0802 14.3397 14.0022 14.3177 13.9242C14.2977 13.8642 14.2777 13.8062 14.2577 13.7502C14.2257 13.6662 14.1917 13.5842 14.1557 13.5042C14.1377 13.4602 14.1177 13.4202 14.0957 13.3782C14.0757 13.3382 14.0537 13.2962 14.0317 13.2542C14.4317 13.9002 15.1477 14.3302 15.9637 14.3302C16.7797 14.3302 17.4957 13.9002 17.8957 13.2542C17.8977 13.2542 17.8977 13.2542 17.8977 13.2522C17.9017 13.2482 17.9037 13.2422 17.9057 13.2382C17.9137 13.2262 17.9197 13.2122 17.9277 13.2002C17.9457 13.1702 17.9637 13.1382 17.9817 13.1102C17.9997 13.0782 18.0197 13.0482 18.0377 13.0182C18.0517 13.0002 18.0657 12.9802 18.0797 12.9622L18.8117 14.3702Z" fill="url(#paint7_linear_3170_13811)"/>
<path d="M1.58558 26.3C1.19958 25.632 1.42758 24.778 2.09758 24.39C2.39358 24.22 2.72758 24.17 3.04158 24.224C3.59958 24.326 4.16558 24.308 4.71758 24.194C5.26558 24.08 5.79958 23.87 6.28758 23.586C7.45758 22.91 8.30358 21.786 8.60358 20.468C8.73758 19.874 9.11158 19.334 9.68158 19.004C10.0356 18.8 10.4216 18.702 10.8056 18.702C10.7416 18.7 10.6816 18.698 10.6216 18.694C10.6056 18.694 10.5896 18.694 10.5756 18.69C10.5436 18.688 10.5116 18.686 10.4816 18.68C10.4196 18.676 10.3556 18.67 10.2916 18.658C10.2736 18.656 10.2556 18.654 10.2356 18.65C10.1856 18.644 10.1336 18.634 10.0796 18.622C10.0776 18.62 10.0716 18.62 10.0676 18.62C10.0636 18.62 10.0596 18.62 10.0516 18.618C10.0436 18.616 10.0356 18.614 10.0256 18.612C10.0236 18.612 10.0216 18.612 10.0176 18.61C9.99158 18.604 9.96558 18.598 9.93958 18.59C9.92358 18.588 9.90358 18.584 9.88358 18.578L9.87558 18.576C9.85958 18.574 9.84158 18.568 9.82758 18.562C9.81558 18.56 9.79958 18.554 9.78558 18.55C9.77158 18.546 9.75758 18.542 9.74358 18.538C9.73158 18.536 9.71758 18.53 9.70358 18.526C9.68158 18.52 9.66158 18.514 9.64358 18.506C9.63358 18.502 9.62358 18.5 9.61358 18.496C9.59158 18.488 9.56358 18.478 9.53758 18.468C9.52158 18.466 9.50758 18.458 9.49358 18.452C9.48958 18.45 9.48758 18.45 9.48158 18.448C9.46158 18.442 9.44358 18.434 9.42758 18.426C9.42558 18.426 9.41958 18.424 9.41758 18.422C9.40958 18.42 9.40158 18.418 9.39358 18.412C9.37758 18.408 9.36358 18.4 9.35158 18.394C9.31958 18.382 9.28958 18.368 9.26358 18.352C9.24358 18.346 9.22558 18.338 9.20958 18.328C9.19758 18.324 9.18758 18.32 9.17958 18.312C9.11158 18.28 9.04558 18.244 8.97958 18.206C8.92958 18.18 8.88158 18.148 8.83358 18.118C8.77158 18.08 8.71558 18.042 8.65958 18C7.91558 18.538 7.42558 19.318 7.23558 20.166C7.02558 21.1 6.41358 21.896 5.58558 22.374L5.51358 22.414C4.80558 22.824 3.98358 22.946 3.17358 22.832C2.57958 22.748 1.95558 22.856 1.39758 23.178C0.059582 23.952 -0.400418 25.66 0.371582 26.998C0.415582 27.074 0.461582 27.146 0.513582 27.214L1.58558 26.3Z" fill="url(#paint8_linear_3170_13811)"/>
<path d="M14.2437 13.7199C14.2657 13.7759 14.2877 13.8379 14.3057 13.8939C14.3297 13.9639 14.3497 14.0339 14.3677 14.1019C14.3737 14.1159 14.3737 14.1279 14.3777 14.1419C14.3917 14.2079 14.4097 14.2739 14.4217 14.3419C14.4357 14.4119 14.4477 14.4859 14.4557 14.5599C14.4577 14.5699 14.4617 14.5799 14.4597 14.5899C14.4697 14.6599 14.4777 14.7319 14.4797 14.8019C14.4857 14.8799 14.4877 14.9559 14.4877 15.0359C14.4877 15.1599 14.4817 15.2819 14.4697 15.4059L14.4637 15.4019C14.4637 15.4039 14.4637 15.4039 14.4637 15.4059C14.4217 15.8419 14.2997 16.2719 14.0957 16.6799C14.0657 16.7399 14.0317 16.8019 13.9977 16.8619C13.9637 16.9199 13.9277 16.9799 13.8897 17.0379C13.6397 17.4199 13.3277 17.7399 12.9717 17.9959C12.7437 17.8319 12.4997 17.6939 12.2397 17.5879C12.1977 17.5719 12.1537 17.5519 12.1137 17.5359C12.0697 17.5199 12.0257 17.5039 11.9817 17.4899C11.9377 17.4759 11.8937 17.4619 11.8497 17.4479C11.7697 17.4259 11.6917 17.4079 11.6117 17.3879C11.5497 17.3759 11.4897 17.3639 11.4317 17.3519C11.3437 17.3379 11.2557 17.3259 11.1677 17.3179C11.1197 17.3119 11.0757 17.3079 11.0277 17.3059C10.9837 17.3039 10.9357 17.3019 10.8877 17.2999C11.6477 17.2759 12.3777 16.8719 12.7857 16.1639C13.1937 15.4579 13.1797 14.6219 12.8197 13.9539C12.8197 13.9519 12.8197 13.9519 12.8197 13.9519C12.8177 13.9459 12.8137 13.9419 12.8117 13.9379C12.8057 13.9259 12.7957 13.9119 12.7897 13.8999C12.7737 13.8699 12.7537 13.8379 12.7397 13.8079C12.7217 13.7759 12.7057 13.7439 12.6877 13.7139C12.6797 13.6919 12.6697 13.6699 12.6597 13.6499L14.2437 13.7199Z" fill="url(#paint9_linear_3170_13811)"/>
<path d="M15.9616 34.5999C15.1896 34.5999 14.5636 33.9759 14.5636 33.2019C14.5636 32.8599 14.6876 32.5459 14.8916 32.3019C15.2596 31.8699 15.5256 31.3699 15.7036 30.8359C15.8776 30.3039 15.9636 29.7379 15.9616 29.1719C15.9616 27.8199 15.4116 26.5279 14.4196 25.6079C13.9716 25.1959 13.6916 24.6019 13.6916 23.9419C13.6916 23.5339 13.7996 23.1499 13.9916 22.8179C13.9576 22.8719 13.9256 22.9239 13.8916 22.9739C13.8836 22.9879 13.8756 23.0019 13.8656 23.0119C13.8476 23.0379 13.8296 23.0659 13.8096 23.0879C13.7756 23.1399 13.7376 23.1919 13.6956 23.2419C13.6856 23.2559 13.6736 23.2719 13.6596 23.2859C13.6296 23.3259 13.5936 23.3659 13.5576 23.4059C13.5556 23.4079 13.5516 23.4119 13.5496 23.4159C13.5476 23.4199 13.5456 23.4239 13.5396 23.4279C13.5336 23.4339 13.5276 23.4399 13.5216 23.4479C13.5196 23.4479 13.5196 23.4519 13.5156 23.4539C13.4976 23.4739 13.4796 23.4919 13.4596 23.5119C13.4496 23.5259 13.4356 23.5399 13.4216 23.5539L13.4156 23.5599C13.4056 23.5739 13.3916 23.5859 13.3796 23.5939C13.3716 23.6039 13.3596 23.6139 13.3476 23.6239C13.3376 23.6339 13.3256 23.6439 13.3156 23.6539C13.3076 23.6639 13.2956 23.6719 13.2856 23.6819C13.2696 23.6979 13.2536 23.7119 13.2376 23.7239C13.2296 23.7299 13.2216 23.7379 13.2136 23.7459C13.1956 23.7619 13.1736 23.7799 13.1516 23.7979C13.1416 23.8119 13.1296 23.8179 13.1156 23.8279C13.1116 23.8299 13.1116 23.8319 13.1056 23.8359C13.0896 23.8499 13.0756 23.8619 13.0596 23.8719C13.0596 23.8739 13.0536 23.8779 13.0516 23.8779C13.0456 23.8839 13.0396 23.8899 13.0316 23.8939C13.0196 23.9059 13.0056 23.9139 12.9956 23.9219C12.9696 23.9439 12.9416 23.9619 12.9156 23.9759C12.8996 23.9899 12.8836 24.0019 12.8676 24.0099C12.8576 24.0179 12.8496 24.0239 12.8396 24.0279C12.7776 24.0699 12.7136 24.1099 12.6476 24.1479C12.5996 24.1779 12.5476 24.2039 12.4976 24.2299C12.4336 24.2639 12.3736 24.2939 12.3096 24.3219C12.4036 25.2359 12.8336 26.0499 13.4736 26.6379C14.1776 27.2859 14.5616 28.2139 14.5616 29.1699L14.5596 29.2519C14.5596 30.0699 14.2556 30.8439 13.7516 31.4879C13.3816 31.9599 13.1636 32.5539 13.1636 33.1999C13.1656 34.7459 14.4136 35.9979 15.9596 35.9979C16.0476 35.9979 16.1316 35.9939 16.2176 35.9839L15.9616 34.5999Z" fill="url(#paint10_linear_3170_13811)"/>
<path d="M11.3955 17.3479C11.4555 17.3559 11.5195 17.3699 11.5775 17.3819C11.6495 17.3959 11.7215 17.4139 11.7895 17.4319C11.8055 17.4339 11.8155 17.4399 11.8295 17.4439C11.8935 17.4639 11.9595 17.4819 12.0255 17.5059C12.0935 17.5279 12.1635 17.5559 12.2315 17.5859C12.2415 17.5899 12.2515 17.5919 12.2595 17.5979C12.3255 17.6239 12.3915 17.6539 12.4535 17.6859C12.5235 17.7199 12.5915 17.7559 12.6595 17.7959C12.7675 17.8579 12.8695 17.9239 12.9715 17.9959L12.9655 17.9999C12.9675 17.9999 12.9675 17.9999 12.9695 18.0019C13.3255 18.2559 13.6375 18.5759 13.8895 18.9579C13.9275 19.0139 13.9635 19.0739 13.9975 19.1339C14.0315 19.1919 14.0655 19.2539 14.0955 19.3159C14.3015 19.7239 14.4235 20.1539 14.4655 20.5899C14.2095 20.7059 13.9675 20.8479 13.7455 21.0199C13.7095 21.0479 13.6715 21.0759 13.6375 21.1039C13.6015 21.1339 13.5655 21.1639 13.5315 21.1959C13.4975 21.2279 13.4635 21.2579 13.4295 21.2879C13.3695 21.3459 13.3155 21.4059 13.2575 21.4639C13.2155 21.5119 13.1755 21.5579 13.1375 21.6019C13.0815 21.6719 13.0275 21.7419 12.9755 21.8139C12.9455 21.8519 12.9215 21.8879 12.8955 21.9279C12.8715 21.9659 12.8455 22.0059 12.8195 22.0459C13.1795 21.3759 13.1935 20.5419 12.7855 19.8359C12.3775 19.1299 11.6475 18.7239 10.8875 18.6999C10.8875 18.6979 10.8875 18.6979 10.8855 18.6999C10.8795 18.6979 10.8735 18.6999 10.8695 18.6999C10.8555 18.6999 10.8395 18.6999 10.8255 18.6999C10.7915 18.6999 10.7535 18.6999 10.7215 18.6979C10.6855 18.6979 10.6495 18.6959 10.6135 18.6959C10.5915 18.6919 10.5675 18.6899 10.5435 18.6879L11.3955 17.3479Z" fill="url(#paint11_linear_3170_13811)"/>
<path d="M30.3399 26.3C29.9539 26.968 29.0999 27.198 28.4299 26.812C28.1339 26.64 27.924 26.376 27.814 26.078C27.624 25.544 27.324 25.062 26.95 24.642C26.576 24.224 26.128 23.868 25.638 23.586C24.468 22.91 23.072 22.74 21.78 23.14C21.198 23.322 20.5439 23.268 19.9719 22.938C19.6179 22.734 19.3399 22.448 19.1479 22.116C19.1779 22.172 19.2059 22.226 19.2339 22.28C19.2419 22.294 19.2499 22.308 19.2539 22.322C19.2679 22.35 19.2819 22.38 19.2919 22.408C19.3199 22.464 19.3459 22.522 19.3679 22.584C19.3759 22.6 19.382 22.618 19.388 22.636C19.408 22.682 19.4239 22.732 19.4419 22.784C19.4419 22.786 19.444 22.792 19.446 22.796C19.448 22.8 19.45 22.804 19.452 22.81C19.454 22.818 19.456 22.826 19.46 22.836C19.46 22.838 19.4619 22.84 19.4619 22.844C19.4699 22.87 19.4779 22.894 19.4839 22.922C19.4899 22.938 19.496 22.956 19.502 22.976L19.5039 22.984C19.5099 23 19.514 23.018 19.516 23.032C19.52 23.044 19.5239 23.06 19.5259 23.074C19.5299 23.088 19.5319 23.102 19.5359 23.116C19.5399 23.128 19.542 23.142 19.546 23.156C19.552 23.178 19.5559 23.198 19.5579 23.218C19.5599 23.228 19.5619 23.238 19.5639 23.25C19.5679 23.274 19.5739 23.302 19.5779 23.33C19.5839 23.346 19.5839 23.36 19.5859 23.376C19.5859 23.38 19.588 23.382 19.588 23.388C19.592 23.408 19.596 23.428 19.596 23.446C19.598 23.448 19.5979 23.454 19.5979 23.456C19.5999 23.464 19.602 23.472 19.602 23.482C19.606 23.498 19.6059 23.514 19.6079 23.528C19.6139 23.562 19.616 23.594 19.616 23.624C19.62 23.644 19.6219 23.664 19.6219 23.682C19.6239 23.694 19.626 23.704 19.624 23.716C19.63 23.79 19.632 23.866 19.632 23.942C19.634 23.998 19.6299 24.056 19.6279 24.112C19.6259 24.184 19.6219 24.252 19.6139 24.322C20.4519 24.698 21.372 24.732 22.202 24.472C23.116 24.186 24.1119 24.318 24.9399 24.796L25.01 24.838C25.718 25.246 26.236 25.898 26.542 26.656C26.766 27.212 27.1719 27.698 27.7299 28.022C29.0699 28.794 30.7779 28.338 31.5519 27C31.596 26.924 31.634 26.848 31.6679 26.77L30.3399 26.3Z" fill="url(#paint12_linear_3170_13811)"/>
<path d="M13.1157 21.63C13.1537 21.582 13.1957 21.534 13.2357 21.49C13.2837 21.434 13.3357 21.382 13.3857 21.332C13.3957 21.32 13.4057 21.314 13.4157 21.302C13.4657 21.256 13.5137 21.208 13.5677 21.164C13.6217 21.116 13.6797 21.07 13.7397 21.026C13.7477 21.02 13.7537 21.012 13.7637 21.008C13.8197 20.964 13.8777 20.922 13.9377 20.884C14.0017 20.84 14.0677 20.8 14.1357 20.76C14.2437 20.698 14.3517 20.642 14.4657 20.59V20.598C14.4677 20.596 14.4677 20.596 14.4697 20.596C14.8677 20.414 15.3017 20.304 15.7577 20.278C15.8257 20.274 15.8957 20.272 15.9637 20.272C16.0317 20.272 16.1017 20.274 16.1697 20.278C16.6257 20.304 17.0597 20.414 17.4577 20.594C17.4297 20.874 17.4317 21.154 17.4697 21.432C17.4757 21.476 17.4817 21.524 17.4877 21.568C17.4957 21.614 17.5037 21.66 17.5137 21.706C17.5237 21.752 17.5337 21.796 17.5437 21.84C17.5637 21.92 17.5877 21.998 17.6097 22.076C17.6297 22.136 17.6497 22.194 17.6697 22.25C17.7017 22.334 17.7357 22.416 17.7717 22.496C17.7897 22.54 17.8097 22.58 17.8317 22.622C17.8517 22.662 17.8737 22.704 17.8957 22.746C17.4957 22.1 16.7797 21.67 15.9637 21.67C15.1477 21.67 14.4317 22.1 14.0317 22.746C14.0297 22.746 14.0297 22.746 14.0297 22.748C14.0257 22.752 14.0237 22.758 14.0217 22.762C14.0137 22.774 14.0077 22.788 13.9997 22.8C13.9817 22.83 13.9637 22.862 13.9457 22.89C13.9277 22.922 13.9077 22.952 13.8897 22.982C13.8757 23 13.8617 23.02 13.8477 23.038L13.1157 21.63Z" fill="url(#paint13_linear_3170_13811)"/>
<path d="M30.3396 9.69989C30.7256 10.3679 30.4976 11.2219 29.8276 11.6099C29.5316 11.7799 29.1976 11.8299 28.8836 11.7759C28.3256 11.6739 27.7596 11.6919 27.2076 11.8059C26.6596 11.9199 26.1256 12.1299 25.6376 12.4139C24.4676 13.0899 23.6216 14.2139 23.3216 15.5319C23.1876 16.1259 22.8136 16.6659 22.2436 16.9959C21.8896 17.1999 21.5036 17.2979 21.1196 17.2979C21.1836 17.2999 21.2436 17.3019 21.3056 17.3059C21.3216 17.3059 21.3376 17.3059 21.3516 17.3099C21.3836 17.3119 21.4156 17.3139 21.4456 17.3199C21.5076 17.3239 21.5716 17.3299 21.6356 17.3419C21.6536 17.3439 21.6716 17.3459 21.6896 17.3499C21.7396 17.3559 21.7916 17.3659 21.8456 17.3779C21.8476 17.3779 21.8536 17.3799 21.8576 17.3799C21.8616 17.3799 21.8656 17.3799 21.8736 17.3819C21.8816 17.3839 21.8896 17.3859 21.8996 17.3879C21.9016 17.3879 21.9036 17.3879 21.9076 17.3899C21.9336 17.3959 21.9596 17.4019 21.9856 17.4099C22.0016 17.4119 22.0216 17.4159 22.0416 17.4219L22.0496 17.4239C22.0656 17.4259 22.0836 17.4319 22.0976 17.4379C22.1096 17.4399 22.1256 17.4459 22.1396 17.4499C22.1536 17.4539 22.1676 17.4579 22.1816 17.4619C22.1936 17.4639 22.2076 17.4699 22.2216 17.4739C22.2436 17.4799 22.2636 17.4859 22.2816 17.4939C22.2916 17.4979 22.3016 17.4999 22.3116 17.5039C22.3336 17.5119 22.3616 17.5219 22.3876 17.5319C22.4036 17.5339 22.4156 17.5419 22.4316 17.5479C22.4356 17.5499 22.4376 17.5499 22.4436 17.5519C22.4636 17.5579 22.4816 17.5659 22.4976 17.5739C22.4996 17.5739 22.5056 17.5759 22.5076 17.5779C22.5156 17.5799 22.5236 17.5819 22.5316 17.5879C22.5476 17.5919 22.5616 17.5999 22.5736 17.6059C22.6056 17.6179 22.6356 17.6319 22.6616 17.6479C22.6816 17.6539 22.6996 17.6619 22.7156 17.6719C22.7276 17.6759 22.7376 17.6799 22.7456 17.6879C22.8136 17.7199 22.8796 17.7559 22.9456 17.7939C22.9956 17.8199 23.0436 17.8519 23.0916 17.8819C23.1536 17.9199 23.2096 17.9579 23.2656 17.9999C24.0096 17.4619 24.4996 16.6819 24.6896 15.8339C24.8996 14.8999 25.5116 14.1039 26.3396 13.6259L26.4116 13.5859C27.1196 13.1759 27.9416 13.0539 28.7516 13.1679C29.3456 13.2519 29.9696 13.1439 30.5276 12.8219C31.8656 12.0479 32.3256 10.3399 31.5536 9.00189C31.5096 8.92589 31.4636 8.85389 31.4116 8.78589L30.3396 9.69989Z" fill="url(#paint14_linear_3170_13811)"/>
<path d="M17.6815 22.2799C17.6595 22.2239 17.6375 22.1619 17.6195 22.1059C17.5955 22.0359 17.5755 21.9659 17.5575 21.8979C17.5515 21.8839 17.5515 21.8719 17.5475 21.8579C17.5335 21.7919 17.5155 21.7259 17.5035 21.6579C17.4895 21.5879 17.4775 21.5139 17.4695 21.4399C17.4675 21.4299 17.4635 21.4199 17.4655 21.4099C17.4555 21.3399 17.4475 21.2679 17.4455 21.1979C17.4395 21.1199 17.4375 21.0439 17.4375 20.9639C17.4375 20.8399 17.4435 20.7179 17.4555 20.5939L17.4615 20.5979C17.4615 20.5959 17.4615 20.5959 17.4615 20.5939C17.5035 20.1579 17.6255 19.7279 17.8295 19.3199C17.8595 19.2599 17.8935 19.1979 17.9275 19.1379C17.9615 19.0799 17.9975 19.0199 18.0355 18.9619C18.2855 18.5799 18.5975 18.2599 18.9535 18.0039C19.1815 18.1679 19.4255 18.3059 19.6855 18.4119C19.7275 18.4279 19.7715 18.4479 19.8115 18.4639C19.8555 18.4799 19.8995 18.4959 19.9435 18.5099C19.9875 18.5239 20.0315 18.5379 20.0755 18.5519C20.1555 18.5739 20.2335 18.5919 20.3135 18.6119C20.3755 18.6239 20.4355 18.6359 20.4935 18.6479C20.5815 18.6619 20.6695 18.6739 20.7575 18.6819C20.8055 18.6879 20.8495 18.6919 20.8975 18.6939C20.9415 18.6959 20.9895 18.6979 21.0375 18.6999C20.2775 18.7239 19.5475 19.1279 19.1395 19.8359C18.7315 20.5419 18.7455 21.3779 19.1055 22.0459C19.1055 22.0479 19.1055 22.0479 19.1055 22.0479C19.1075 22.0539 19.1115 22.0579 19.1135 22.0619C19.1195 22.0739 19.1295 22.0879 19.1355 22.0999C19.1515 22.1299 19.1715 22.1619 19.1855 22.1919C19.2035 22.2239 19.2195 22.2559 19.2375 22.2859C19.2455 22.3079 19.2575 22.3299 19.2655 22.3499L17.6815 22.2799Z" fill="url(#paint15_linear_3170_13811)"/>
<path d="M15.9636 1.4C16.7356 1.4 17.3616 2.024 17.3616 2.798C17.3616 3.14 17.2376 3.454 17.0336 3.698C16.6656 4.13 16.3996 4.63 16.2216 5.164C16.0476 5.696 15.9616 6.262 15.9636 6.828C15.9636 8.18 16.5136 9.472 17.5056 10.392C17.9536 10.804 18.2336 11.398 18.2356 12.058C18.2356 12.466 18.1276 12.85 17.9356 13.182C17.9696 13.128 18.0016 13.076 18.0356 13.026C18.0436 13.012 18.0516 12.998 18.0616 12.988C18.0796 12.962 18.0976 12.934 18.1176 12.912C18.1516 12.86 18.1896 12.808 18.2316 12.758C18.2416 12.744 18.2536 12.728 18.2676 12.714C18.2976 12.674 18.3336 12.634 18.3696 12.594C18.3716 12.592 18.3756 12.588 18.3776 12.584C18.3796 12.58 18.3816 12.576 18.3876 12.572C18.3936 12.566 18.3996 12.56 18.4056 12.552C18.4076 12.55 18.4076 12.548 18.4116 12.546C18.4296 12.526 18.4476 12.508 18.4676 12.488C18.4776 12.474 18.4916 12.46 18.5056 12.446L18.5116 12.44C18.5216 12.426 18.5356 12.414 18.5476 12.406C18.5556 12.396 18.5676 12.386 18.5796 12.376C18.5896 12.366 18.6016 12.356 18.6116 12.346C18.6196 12.336 18.6316 12.328 18.6416 12.318C18.6576 12.302 18.6736 12.288 18.6896 12.276C18.6976 12.27 18.7056 12.262 18.7136 12.254C18.7316 12.238 18.7536 12.22 18.7756 12.202C18.7856 12.188 18.7976 12.182 18.8116 12.172C18.8156 12.17 18.8156 12.168 18.8216 12.164C18.8376 12.15 18.8516 12.138 18.8676 12.128C18.8676 12.126 18.8736 12.122 18.8756 12.122C18.8816 12.116 18.8876 12.11 18.8956 12.106C18.9076 12.094 18.9216 12.086 18.9316 12.078C18.9576 12.056 18.9856 12.038 19.0116 12.024C19.0276 12.01 19.0436 11.998 19.0596 11.99C19.0696 11.982 19.0776 11.976 19.0876 11.972C19.1496 11.93 19.2136 11.89 19.2796 11.852C19.3276 11.822 19.3796 11.796 19.4296 11.77C19.4936 11.736 19.5536 11.706 19.6176 11.678C19.5236 10.764 19.0936 9.95 18.4536 9.362C17.7496 8.714 17.3656 7.786 17.3656 6.83L17.3676 6.748C17.3676 5.93 17.6716 5.156 18.1756 4.512C18.5456 4.04 18.7636 3.446 18.7636 2.8C18.7576 1.252 17.5096 0.002 15.9636 0C15.8756 0 15.7916 0.004 15.7056 0.014L15.9636 1.4Z" fill="url(#paint16_linear_3170_13811)"/>
<path d="M20.5295 18.6521C20.4695 18.6441 20.4055 18.6301 20.3475 18.6181C20.2755 18.6041 20.2035 18.5861 20.1355 18.5681C20.1195 18.5661 20.1095 18.5601 20.0955 18.5561C20.0315 18.5361 19.9655 18.5181 19.8995 18.4941C19.8315 18.4721 19.7615 18.4441 19.6935 18.4141C19.6835 18.4101 19.6735 18.4081 19.6655 18.4021C19.5995 18.3761 19.5335 18.3461 19.4715 18.3141C19.4015 18.2801 19.3335 18.2441 19.2655 18.2041C19.1575 18.1421 19.0555 18.0761 18.9535 18.0041L18.9595 18.0001C18.9575 18.0001 18.9575 18.0001 18.9555 17.9981C18.5995 17.7441 18.2875 17.4241 18.0355 17.0421C17.9975 16.9861 17.9615 16.9261 17.9275 16.8661C17.8935 16.8081 17.8595 16.7461 17.8295 16.6841C17.6235 16.2761 17.5015 15.8461 17.4595 15.4101C17.7155 15.2941 17.9575 15.1521 18.1795 14.9801C18.2155 14.9521 18.2535 14.9241 18.2875 14.8961C18.3235 14.8661 18.3595 14.8361 18.3935 14.8041C18.4275 14.7721 18.4615 14.7421 18.4955 14.7121C18.5555 14.6541 18.6095 14.5941 18.6675 14.5361C18.7095 14.4881 18.7495 14.4421 18.7875 14.3981C18.8435 14.3281 18.8975 14.2581 18.9495 14.1861C18.9795 14.1481 19.0035 14.1121 19.0295 14.0721C19.0535 14.0341 19.0795 13.9941 19.1055 13.9541C18.7455 14.6241 18.7315 15.4581 19.1395 16.1641C19.5475 16.8701 20.2775 17.2761 21.0375 17.3001C21.0375 17.3021 21.0375 17.3021 21.0395 17.3001C21.0455 17.3021 21.0515 17.3001 21.0555 17.3001C21.0695 17.3001 21.0855 17.3001 21.0995 17.3001C21.1335 17.3001 21.1715 17.3001 21.2035 17.3021C21.2395 17.3021 21.2755 17.3041 21.3115 17.3041C21.3335 17.3081 21.3575 17.3101 21.3815 17.3121L20.5295 18.6521Z" fill="url(#paint17_linear_3170_13811)"/>
<path d="M8.17155 4.50591C9.25755 3.87791 10.6475 4.24991 11.2755 5.33791C11.9035 6.42391 11.5315 7.81391 10.4435 8.44191C9.35755 9.06991 7.96755 8.69791 7.33955 7.60991C6.71355 6.52191 7.08555 5.13391 8.17155 4.50591Z" fill="url(#paint18_linear_3170_13811)"/>
<path d="M2.65139 20.272C3.90619 20.272 4.9234 19.2548 4.9234 18C4.9234 16.7452 3.90619 15.728 2.65139 15.728C1.3966 15.728 0.379395 16.7452 0.379395 18C0.379395 19.2548 1.3966 20.272 2.65139 20.272Z" fill="url(#paint19_linear_3170_13811)"/>
<path d="M9.30764 31.8001C10.5624 31.8001 11.5796 30.7829 11.5796 29.5281C11.5796 28.2733 10.5624 27.2561 9.30764 27.2561C8.05285 27.2561 7.03564 28.2733 7.03564 29.5281C7.03564 30.7829 8.05285 31.8001 9.30764 31.8001Z" fill="url(#paint20_linear_3170_13811)"/>
<path d="M23.7535 31.4939C22.6675 32.1219 21.2775 31.7499 20.6495 30.6619C20.0215 29.5759 20.3935 28.1859 21.4815 27.5579C22.5675 26.9299 23.9575 27.3019 24.5855 28.3899C25.2115 29.4779 24.8395 30.8679 23.7535 31.4939Z" fill="url(#paint21_linear_3170_13811)"/>
<path d="M29.2735 20.272C30.5283 20.272 31.5455 19.2548 31.5455 18C31.5455 16.7452 30.5283 15.728 29.2735 15.728C28.0187 15.728 27.0015 16.7452 27.0015 18C27.0015 19.2548 28.0187 20.272 29.2735 20.272Z" fill="url(#paint22_linear_3170_13811)"/>
<path d="M23.7536 4.50591C24.8396 5.13391 25.2116 6.52191 24.5856 7.60991C23.9576 8.69591 22.5696 9.06791 21.4816 8.44191C20.3956 7.81391 20.0236 6.42591 20.6496 5.33791C21.2776 4.24991 22.6676 3.87791 23.7536 4.50591Z" fill="url(#paint23_linear_3170_13811)"/>
<path d="M136.52 3V17.26C136.52 19.02 134.794 19.886 133.45 19.404H133.05C133.272 19.404 133.45 19.224 133.45 19.004V5.272C133.45 4.016 134.468 3 135.722 3H136.52Z" fill="url(#paint24_linear_3170_13811)"/>
<path fill-rule="evenodd" clip-rule="evenodd" d="M125.917 14.8301C126.257 16.3641 124.921 17.7001 123.387 17.3601C122.615 17.1881 121.991 16.5641 121.819 15.7921C121.479 14.2581 122.817 12.9221 124.349 13.2621C125.123 13.4341 125.747 14.0581 125.917 14.8301Z" fill="url(#paint25_linear_3170_13811)"/>
<path d="M123.486 7.36807C123.486 7.36807 123.89 6.44808 124.084 6.00807C124.57 4.90008 126.136 4.89207 126.636 5.99207L125.892 4.35407C125.584 3.67808 124.978 3.16407 124.246 3.03407C123.236 2.85608 122.262 3.39007 121.852 4.29407L114.288 20.9981H116.008C116.908 20.9981 117.724 20.4661 118.088 19.6401L123.486 7.36807Z" fill="url(#paint26_linear_3170_13811)"/>
<path d="M136.521 17.2601V17.9301C136.521 18.7781 136.177 19.5461 135.621 20.1001C135.067 20.6561 134.299 21.0001 133.451 21.0001V20.9981C131.475 20.9981 129.687 19.8321 128.891 18.0221L124.211 7.38214C124.071 7.06814 123.631 7.06414 123.485 7.36814C123.689 6.90414 123.889 6.44814 124.083 6.00814C124.569 4.90014 126.135 4.89214 126.635 5.99214L129.629 12.5841L130.761 15.0761L132.179 18.2001C132.183 18.2101 132.187 18.2201 132.193 18.2281C132.477 18.8341 132.935 19.2181 133.451 19.4041C134.795 19.8861 136.521 19.0201 136.521 17.2601Z" fill="url(#paint27_linear_3170_13811)"/>
<path d="M78.5195 16.7239V20.9999H79.3155C80.5695 20.9999 81.5875 19.9819 81.5875 18.7279V15.3259H79.9175C79.1455 15.3259 78.5195 15.9519 78.5195 16.7239Z" fill="url(#paint28_linear_3170_13811)"/>
<path d="M82.9695 3H80.7915C79.5375 3 78.5195 4.018 78.5195 5.272V5.746V9.164H79.2995C80.5535 9.164 81.5715 8.146 81.5715 6.892V5.746V4.398C81.5715 3.626 82.1975 3 82.9695 3Z" fill="url(#paint29_linear_3170_13811)"/>
<path d="M91.1116 4.686C89.7696 3.568 87.9156 3 85.6016 3H82.9676C82.1956 3 81.5696 3.626 81.5696 4.398V5.746H85.5256C87.0256 5.746 88.1796 6.064 88.9516 6.688C89.7156 7.308 90.0876 7.982 90.0876 9.162C90.0876 10.34 89.7156 11.016 88.9516 11.634C88.1796 12.26 87.0256 12.576 85.5256 12.576H80.7896C79.5356 12.576 78.5176 13.594 78.5176 14.848V16.72C78.5176 15.948 79.1436 15.322 79.9156 15.322H85.6016C87.9156 15.322 89.7696 14.754 91.1116 13.636C92.4676 12.506 93.1576 11.132 93.1576 9.16C93.1576 7.192 92.4696 5.816 91.1116 4.686Z" fill="url(#paint30_linear_3170_13811)"/>
<path d="M47.6998 16.046C47.5598 16.364 47.1078 16.364 46.9678 16.044L47.6358 17.566C48.1238 18.682 49.7078 18.682 50.1958 17.566L56.5838 3H54.9418C54.0418 3 53.2278 3.53 52.8638 4.354L47.6998 16.046Z" fill="url(#paint31_linear_3170_13811)"/>
<path d="M47.6337 17.568L46.9657 16.046L41.8457 4.36C41.4837 3.534 40.6677 3 39.7657 3H37.9277L45.2497 19.64C45.5497 20.322 46.1577 20.84 46.8937 20.966C47.8997 21.138 48.8657 20.6 49.2617 19.696L50.1957 17.568C49.7057 18.684 48.1237 18.684 47.6337 17.568Z" fill="url(#paint32_linear_3170_13811)"/>
<path d="M63.7435 6.83603L61.1955 3.67003C60.8875 3.28803 60.4375 3.02803 59.9475 3.00403C58.9835 2.95403 58.1875 3.72003 58.1875 4.67203V21H58.9855C60.2395 21 61.2575 19.982 61.2575 18.728V8.54403V7.71203C61.2575 6.39403 62.9175 5.80803 63.7435 6.83603Z" fill="url(#paint33_linear_3170_13811)"/>
<path d="M71.2619 16.1801L70.6799 15.4581L63.7439 6.83806C62.9159 5.81006 61.2559 6.39606 61.2559 7.71406V8.54606L70.7759 20.3781C71.0919 20.7721 71.5719 21.0021 72.0779 21.0021C72.9999 21.0021 73.7479 20.2541 73.7479 19.3321V15.3041C73.7499 16.6221 72.0899 17.2081 71.2619 16.1801Z" fill="url(#paint34_linear_3170_13811)"/>
<path d="M70.6797 15.456L71.2617 16.178C72.0897 17.206 73.7497 16.622 73.7497 15.302V3H72.9517C71.6977 3 70.6797 4.018 70.6797 5.272V15.456Z" fill="url(#paint35_linear_3170_13811)"/>
<path d="M100.918 3C101.69 3 102.316 3.626 102.316 4.398V5.746H108.288V5.272C108.288 4.018 107.27 3 106.016 3H100.918Z" fill="url(#paint36_linear_3170_13811)"/>
<path d="M100.918 3H95.5858H93.2998V3.474C93.2998 4.728 94.3178 5.746 95.5718 5.746H99.2718V21H100.044C101.298 21 102.316 19.982 102.316 18.728V5.746V4.398C102.316 3.626 101.69 3 100.918 3Z" fill="url(#paint37_linear_3170_13811)"/>
<path d="M44.5018 32.902H42.5918V27H44.5638C45.1418 27 45.6398 27.118 46.0538 27.354C46.4698 27.59 46.7878 27.926 47.0098 28.366C47.2318 28.806 47.3418 29.332 47.3418 29.944C47.3418 30.558 47.2298 31.088 47.0058 31.528C46.7818 31.97 46.4578 32.31 46.0358 32.546C45.6138 32.784 45.1018 32.902 44.5018 32.902ZM43.4818 32.124H44.4538C44.9038 32.124 45.2778 32.04 45.5758 31.868C45.8738 31.698 46.0958 31.452 46.2438 31.128C46.3918 30.804 46.4658 30.408 46.4658 29.942C46.4658 29.48 46.3918 29.086 46.2458 28.764C46.0998 28.442 45.8798 28.196 45.5898 28.03C45.2998 27.862 44.9398 27.78 44.5098 27.78H43.4838V32.124H43.4818Z" fill="#0667E1"/>
<path d="M49.3379 32.902V27H53.0379V27.766H50.2279V29.564H52.8439V30.328H50.2279V32.134H53.0719V32.9H49.3379V32.902Z" fill="#0667E1"/>
<path d="M78.8696 27.766V27H83.4376V27.766H81.5956V32.902H80.7076V27.766H78.8696Z" fill="#0667E1"/>
<path d="M100.482 32.902V27H104.142V27.766H101.372V29.564H103.88V30.328H101.372V32.902H100.482Z" fill="#0667E1"/>
<path d="M132.786 32.902V27H136.486V27.766H133.676V29.564H136.292V30.328H133.676V32.134H136.52V32.9H132.786V32.902Z" fill="#0667E1"/>
<path d="M55.1558 32.902V27H58.8158V27.766H56.0458V29.564H58.5538V30.328H56.0458V32.902H55.1558Z" fill="#0667E1"/>
<path d="M61.7899 27V32.902H60.8999V27H61.7899Z" fill="#0667E1"/>
<path d="M68.636 27V32.902H67.818L64.818 28.574H64.764V32.902H63.874V27H64.698L67.7 31.334H67.754V27H68.636Z" fill="#0667E1"/>
<path d="M70.7178 32.902V27H74.4178V27.766H71.6078V29.564H74.2238V30.328H71.6078V32.134H74.4518V32.9H70.7178V32.902Z" fill="#0667E1"/>
<path d="M85.52 32.902V27H86.41V29.564H89.352V27H90.246V32.902H89.352V30.328H86.41V32.902H85.52Z" fill="#0667E1"/>
<path d="M92.3296 32.902V27H96.0296V27.766H93.2196V29.564H95.8356V30.328H93.2196V32.134H96.0636V32.9H92.3296V32.902Z" fill="#0667E1"/>
<path d="M110.02 27H110.914V30.882C110.914 31.296 110.818 31.66 110.622 31.978C110.428 32.296 110.156 32.546 109.804 32.728C109.452 32.91 109.04 33 108.568 33C108.098 33 107.686 32.91 107.334 32.728C106.982 32.546 106.71 32.296 106.516 31.978C106.322 31.66 106.224 31.294 106.224 30.882V27H107.114V30.81C107.114 31.078 107.172 31.314 107.292 31.522C107.41 31.73 107.578 31.892 107.794 32.01C108.01 32.128 108.268 32.188 108.566 32.188C108.866 32.188 109.124 32.128 109.342 32.01C109.56 31.892 109.728 31.73 109.844 31.522C109.96 31.314 110.018 31.078 110.018 30.81V27H110.02Z" fill="#0667E1"/>
<path d="M112.996 27.766V27H117.564V27.766H115.722V32.902H114.834V27.766H112.996Z" fill="#0667E1"/>
<path d="M123.442 27H124.336V30.882C124.336 31.296 124.24 31.66 124.046 31.978C123.852 32.296 123.58 32.546 123.228 32.728C122.876 32.91 122.464 33 121.992 33C121.522 33 121.11 32.91 120.758 32.728C120.406 32.546 120.134 32.296 119.94 31.978C119.746 31.66 119.648 31.294 119.648 30.882V27H120.538V30.81C120.538 31.078 120.596 31.314 120.716 31.522C120.834 31.73 121.002 31.892 121.218 32.01C121.436 32.128 121.692 32.188 121.99 32.188C122.29 32.188 122.548 32.128 122.766 32.01C122.984 31.892 123.152 31.73 123.268 31.522C123.384 31.314 123.442 31.078 123.442 30.81V27Z" fill="#0667E1"/>
<path d="M126.418 32.902V27H128.522C128.98 27 129.36 27.078 129.662 27.236C129.964 27.394 130.19 27.612 130.34 27.888C130.49 28.166 130.564 28.486 130.564 28.85C130.564 29.212 130.488 29.528 130.338 29.802C130.188 30.076 129.96 30.288 129.658 30.44C129.356 30.592 128.976 30.668 128.518 30.668H126.924V29.902H128.436C128.724 29.902 128.958 29.86 129.14 29.778C129.322 29.696 129.454 29.576 129.54 29.418C129.624 29.26 129.666 29.072 129.666 28.85C129.666 28.628 129.624 28.434 129.538 28.27C129.452 28.106 129.32 27.982 129.138 27.894C128.956 27.806 128.718 27.762 128.424 27.762H127.306V32.9H126.418V32.902ZM129.332 30.24L130.79 32.902H129.776L128.346 30.24H129.332Z" fill="#0667E1"/>
<defs>
<linearGradient id="paint0_linear_3170_13811" x1="9.70266" y1="1.62138" x2="28.0923" y2="30.4183" gradientUnits="userSpaceOnUse">
<stop stop-color="#278EFF"/>
<stop offset="1" stop-color="#0667E1"/>
</linearGradient>
<linearGradient id="paint1_linear_3170_13811" x1="2.72665" y1="6.07619" x2="21.1163" y2="34.8731" gradientUnits="userSpaceOnUse">
<stop stop-color="#278EFF"/>
<stop offset="1" stop-color="#0667E1"/>
</linearGradient>
<linearGradient id="paint2_linear_3170_13811" x1="-0.916706" y1="8.40272" x2="17.473" y2="37.1998" gradientUnits="userSpaceOnUse">
<stop stop-color="#278EFF"/>
<stop offset="1" stop-color="#0667E1"/>
</linearGradient>
<linearGradient id="paint3_linear_3170_13811" x1="3.73706" y1="5.43077" x2="22.1267" y2="34.2277" gradientUnits="userSpaceOnUse">
<stop stop-color="#278EFF"/>
<stop offset="1" stop-color="#0667E1"/>
</linearGradient>
<linearGradient id="paint4_linear_3170_13811" x1="10.7128" y1="0.976156" x2="29.1025" y2="29.7731" gradientUnits="userSpaceOnUse">
<stop stop-color="#278EFF"/>
<stop offset="1" stop-color="#0667E1"/>
</linearGradient>
<linearGradient id="paint5_linear_3170_13811" x1="14.3565" y1="-1.35054" x2="32.7462" y2="27.4464" gradientUnits="userSpaceOnUse">
<stop stop-color="#278EFF"/>
<stop offset="1" stop-color="#0667E1"/>
</linearGradient>
<linearGradient id="paint6_linear_3170_13811" x1="13.1352" y1="11.3678" x2="9.09353" y2="10.8878" gradientUnits="userSpaceOnUse">
<stop stop-color="#26235F" stop-opacity="0.6"/>
<stop offset="0.1375" stop-color="#252864" stop-opacity="0.5175"/>
<stop offset="0.2959" stop-color="#223671" stop-opacity="0.4225"/>
<stop offset="0.4647" stop-color="#1C4D88" stop-opacity="0.3212"/>
<stop offset="0.6407" stop-color="#156DA7" stop-opacity="0.2156"/>
<stop offset="0.8205" stop-color="#0B96CF" stop-opacity="0.1077"/>
<stop offset="1" stop-color="#00C7FF" stop-opacity="0"/>
</linearGradient>
<linearGradient id="paint7_linear_3170_13811" x1="13.8177" y1="14.3241" x2="17.5058" y2="14.3494" gradientUnits="userSpaceOnUse">
<stop stop-color="#26235F" stop-opacity="0.6"/>
<stop offset="0.1375" stop-color="#252864" stop-opacity="0.5175"/>
<stop offset="0.2959" stop-color="#223671" stop-opacity="0.4225"/>
<stop offset="0.4647" stop-color="#1C4D88" stop-opacity="0.3212"/>
<stop offset="0.6407" stop-color="#156DA7" stop-opacity="0.2156"/>
<stop offset="0.8205" stop-color="#0B96CF" stop-opacity="0.1077"/>
<stop offset="1" stop-color="#00C7FF" stop-opacity="0"/>
</linearGradient>
<linearGradient id="paint8_linear_3170_13811" x1="8.80529" y1="17.1328" x2="6.36876" y2="20.393" gradientUnits="userSpaceOnUse">
<stop stop-color="#26235F" stop-opacity="0.6"/>
<stop offset="0.1375" stop-color="#252864" stop-opacity="0.5175"/>
<stop offset="0.2959" stop-color="#223671" stop-opacity="0.4225"/>
<stop offset="0.4647" stop-color="#1C4D88" stop-opacity="0.3212"/>
<stop offset="0.6407" stop-color="#156DA7" stop-opacity="0.2156"/>
<stop offset="0.8205" stop-color="#0B96CF" stop-opacity="0.1077"/>
<stop offset="1" stop-color="#00C7FF" stop-opacity="0"/>
</linearGradient>
<linearGradient id="paint9_linear_3170_13811" x1="11.7068" y1="18.0197" x2="13.5727" y2="14.8385" gradientUnits="userSpaceOnUse">
<stop stop-color="#26235F" stop-opacity="0.6"/>
<stop offset="0.1375" stop-color="#252864" stop-opacity="0.5175"/>
<stop offset="0.2959" stop-color="#223671" stop-opacity="0.4225"/>
<stop offset="0.4647" stop-color="#1C4D88" stop-opacity="0.3212"/>
<stop offset="0.6407" stop-color="#156DA7" stop-opacity="0.2156"/>
<stop offset="0.8205" stop-color="#0B96CF" stop-opacity="0.1077"/>
<stop offset="1" stop-color="#00C7FF" stop-opacity="0"/>
</linearGradient>
<linearGradient id="paint10_linear_3170_13811" x1="11.633" y1="23.765" x2="13.2382" y2="27.5051" gradientUnits="userSpaceOnUse">
<stop stop-color="#26235F" stop-opacity="0.6"/>
<stop offset="0.1375" stop-color="#252864" stop-opacity="0.5175"/>
<stop offset="0.2959" stop-color="#223671" stop-opacity="0.4225"/>
<stop offset="0.4647" stop-color="#1C4D88" stop-opacity="0.3212"/>
<stop offset="0.6407" stop-color="#156DA7" stop-opacity="0.2156"/>
<stop offset="0.8205" stop-color="#0B96CF" stop-opacity="0.1077"/>
<stop offset="1" stop-color="#00C7FF" stop-opacity="0"/>
</linearGradient>
<linearGradient id="paint11_linear_3170_13811" x1="13.8519" y1="21.6957" x2="12.0297" y2="18.4892" gradientUnits="userSpaceOnUse">
<stop stop-color="#26235F" stop-opacity="0.6"/>
<stop offset="0.1375" stop-color="#252864" stop-opacity="0.5175"/>
<stop offset="0.2959" stop-color="#223671" stop-opacity="0.4225"/>
<stop offset="0.4647" stop-color="#1C4D88" stop-opacity="0.3212"/>
<stop offset="0.6407" stop-color="#156DA7" stop-opacity="0.2156"/>
<stop offset="0.8205" stop-color="#0B96CF" stop-opacity="0.1077"/>
<stop offset="1" stop-color="#00C7FF" stop-opacity="0"/>
</linearGradient>
<linearGradient id="paint12_linear_3170_13811" x1="18.791" y1="24.6322" x2="22.8327" y2="25.1122" gradientUnits="userSpaceOnUse">
<stop stop-color="#26235F" stop-opacity="0.6"/>
<stop offset="0.1375" stop-color="#252864" stop-opacity="0.5175"/>
<stop offset="0.2959" stop-color="#223671" stop-opacity="0.4225"/>
<stop offset="0.4647" stop-color="#1C4D88" stop-opacity="0.3212"/>
<stop offset="0.6407" stop-color="#156DA7" stop-opacity="0.2156"/>
<stop offset="0.8205" stop-color="#0B96CF" stop-opacity="0.1077"/>
<stop offset="1" stop-color="#00C7FF" stop-opacity="0"/>
</linearGradient>
<linearGradient id="paint13_linear_3170_13811" x1="18.1083" y1="21.676" x2="14.4202" y2="21.6507" gradientUnits="userSpaceOnUse">
<stop stop-color="#26235F" stop-opacity="0.6"/>
<stop offset="0.1375" stop-color="#252864" stop-opacity="0.5175"/>
<stop offset="0.2959" stop-color="#223671" stop-opacity="0.4225"/>
<stop offset="0.4647" stop-color="#1C4D88" stop-opacity="0.3212"/>
<stop offset="0.6407" stop-color="#156DA7" stop-opacity="0.2156"/>
<stop offset="0.8205" stop-color="#0B96CF" stop-opacity="0.1077"/>
<stop offset="1" stop-color="#00C7FF" stop-opacity="0"/>
</linearGradient>
<linearGradient id="paint14_linear_3170_13811" x1="23.1204" y1="18.8671" x2="25.557" y2="15.6069" gradientUnits="userSpaceOnUse">
<stop stop-color="#26235F" stop-opacity="0.6"/>
<stop offset="0.1375" stop-color="#252864" stop-opacity="0.5175"/>
<stop offset="0.2959" stop-color="#223671" stop-opacity="0.4225"/>
<stop offset="0.4647" stop-color="#1C4D88" stop-opacity="0.3212"/>
<stop offset="0.6407" stop-color="#156DA7" stop-opacity="0.2156"/>
<stop offset="0.8205" stop-color="#0B96CF" stop-opacity="0.1077"/>
<stop offset="1" stop-color="#00C7FF" stop-opacity="0"/>
</linearGradient>
<linearGradient id="paint15_linear_3170_13811" x1="20.219" y1="17.9801" x2="18.353" y2="21.1613" gradientUnits="userSpaceOnUse">
<stop stop-color="#26235F" stop-opacity="0.6"/>
<stop offset="0.1375" stop-color="#252864" stop-opacity="0.5175"/>
<stop offset="0.2959" stop-color="#223671" stop-opacity="0.4225"/>
<stop offset="0.4647" stop-color="#1C4D88" stop-opacity="0.3212"/>
<stop offset="0.6407" stop-color="#156DA7" stop-opacity="0.2156"/>
<stop offset="0.8205" stop-color="#0B96CF" stop-opacity="0.1077"/>
<stop offset="1" stop-color="#00C7FF" stop-opacity="0"/>
</linearGradient>
<linearGradient id="paint16_linear_3170_13811" x1="20.2927" y1="12.2348" x2="18.6875" y2="8.49469" gradientUnits="userSpaceOnUse">
<stop stop-color="#26235F" stop-opacity="0.6"/>
<stop offset="0.1375" stop-color="#252864" stop-opacity="0.5175"/>
<stop offset="0.2959" stop-color="#223671" stop-opacity="0.4225"/>
<stop offset="0.4647" stop-color="#1C4D88" stop-opacity="0.3212"/>
<stop offset="0.6407" stop-color="#156DA7" stop-opacity="0.2156"/>
<stop offset="0.8205" stop-color="#0B96CF" stop-opacity="0.1077"/>
<stop offset="1" stop-color="#00C7FF" stop-opacity="0"/>
</linearGradient>
<linearGradient id="paint17_linear_3170_13811" x1="18.0736" y1="14.3043" x2="19.8958" y2="17.5108" gradientUnits="userSpaceOnUse">
<stop stop-color="#26235F" stop-opacity="0.6"/>
<stop offset="0.1375" stop-color="#252864" stop-opacity="0.5175"/>
<stop offset="0.2959" stop-color="#223671" stop-opacity="0.4225"/>
<stop offset="0.4647" stop-color="#1C4D88" stop-opacity="0.3212"/>
<stop offset="0.6407" stop-color="#156DA7" stop-opacity="0.2156"/>
<stop offset="0.8205" stop-color="#0B96CF" stop-opacity="0.1077"/>
<stop offset="1" stop-color="#00C7FF" stop-opacity="0"/>
</linearGradient>
<linearGradient id="paint18_linear_3170_13811" x1="5.86211" y1="2.71263" x2="27.9903" y2="26.8617" gradientUnits="userSpaceOnUse">
<stop stop-color="#3EDBFF"/>
<stop offset="1" stop-color="#04BBF4"/>
</linearGradient>
<linearGradient id="paint19_linear_3170_13811" x1="-3.49727" y1="11.2888" x2="18.6309" y2="35.4378" gradientUnits="userSpaceOnUse">
<stop stop-color="#3EDBFF"/>
<stop offset="1" stop-color="#04BBF4"/>
</linearGradient>
<linearGradient id="paint20_linear_3170_13811" x1="-5.62096" y1="13.235" x2="16.5073" y2="37.3841" gradientUnits="userSpaceOnUse">
<stop stop-color="#3EDBFF"/>
<stop offset="1" stop-color="#04BBF4"/>
</linearGradient>
<linearGradient id="paint21_linear_3170_13811" x1="1.61415" y1="6.60509" x2="23.7423" y2="30.7541" gradientUnits="userSpaceOnUse">
<stop stop-color="#3EDBFF"/>
<stop offset="1" stop-color="#04BBF4"/>
</linearGradient>
<linearGradient id="paint22_linear_3170_13811" x1="10.9733" y1="-1.97085" x2="33.1015" y2="22.1782" gradientUnits="userSpaceOnUse">
<stop stop-color="#3EDBFF"/>
<stop offset="1" stop-color="#04BBF4"/>
</linearGradient>
<linearGradient id="paint23_linear_3170_13811" x1="13.0974" y1="-3.91715" x2="35.2256" y2="20.2319" gradientUnits="userSpaceOnUse">
<stop stop-color="#3EDBFF"/>
<stop offset="1" stop-color="#04BBF4"/>
</linearGradient>
<linearGradient id="paint24_linear_3170_13811" x1="134.786" y1="3.00068" x2="134.786" y2="19.5366" gradientUnits="userSpaceOnUse">
<stop stop-color="#3EDBFF"/>
<stop offset="1" stop-color="#04BBF4"/>
</linearGradient>
<linearGradient id="paint25_linear_3170_13811" x1="121.766" y1="15.3121" x2="125.971" y2="15.3121" gradientUnits="userSpaceOnUse">
<stop stop-color="#3EDBFF"/>
<stop offset="1" stop-color="#04BBF4"/>
</linearGradient>
<linearGradient id="paint26_linear_3170_13811" x1="124.444" y1="4.70673" x2="116.967" y2="20.9238" gradientUnits="userSpaceOnUse">
<stop stop-color="#3EDBFF"/>
<stop offset="1" stop-color="#04BBF4"/>
</linearGradient>
<linearGradient id="paint27_linear_3170_13811" x1="133.964" y1="20.2784" x2="126.613" y2="5.49946" gradientUnits="userSpaceOnUse">
<stop stop-color="#3EDBFF"/>
<stop offset="1" stop-color="#04BBF4"/>
</linearGradient>
<linearGradient id="paint28_linear_3170_13811" x1="80.0525" y1="20.8817" x2="80.0525" y2="15.4141" gradientUnits="userSpaceOnUse">
<stop stop-color="#278EFF"/>
<stop offset="1" stop-color="#0667E1"/>
</linearGradient>
<linearGradient id="paint29_linear_3170_13811" x1="80.7437" y1="3.77226" x2="80.7437" y2="8.9651" gradientUnits="userSpaceOnUse">
<stop stop-color="#278EFF"/>
<stop offset="1" stop-color="#0667E1"/>
</linearGradient>
<linearGradient id="paint30_linear_3170_13811" x1="86.1308" y1="12.1207" x2="81.4318" y2="6.86594" gradientUnits="userSpaceOnUse">
<stop stop-color="#278EFF"/>
<stop offset="1" stop-color="#0667E1"/>
</linearGradient>
<linearGradient id="paint31_linear_3170_13811" x1="54.1473" y1="4.26382" x2="48.7663" y2="16.3901" gradientUnits="userSpaceOnUse">
<stop stop-color="#278EFF"/>
<stop offset="1" stop-color="#0667E1"/>
</linearGradient>
<linearGradient id="paint32_linear_3170_13811" x1="48.2233" y1="20.0692" x2="41.0991" y2="3.31978" gradientUnits="userSpaceOnUse">
<stop stop-color="#278EFF"/>
<stop offset="1" stop-color="#0667E1"/>
</linearGradient>
<linearGradient id="paint33_linear_3170_13811" x1="60.9662" y1="4.80709" x2="60.9662" y2="20.8752" gradientUnits="userSpaceOnUse">
<stop stop-color="#278EFF"/>
<stop offset="1" stop-color="#0667E1"/>
</linearGradient>
<linearGradient id="paint34_linear_3170_13811" x1="73.3542" y1="19.135" x2="63.0973" y2="6.95814" gradientUnits="userSpaceOnUse">
<stop stop-color="#278EFF"/>
<stop offset="1" stop-color="#0667E1"/>
</linearGradient>
<linearGradient id="paint35_linear_3170_13811" x1="72.2145" y1="3.34178" x2="72.2145" y2="15.2155" gradientUnits="userSpaceOnUse">
<stop stop-color="#278EFF"/>
<stop offset="1" stop-color="#0667E1"/>
</linearGradient>
<linearGradient id="paint36_linear_3170_13811" x1="106.739" y1="3.29088" x2="101.73" y2="5.82874" gradientUnits="userSpaceOnUse">
<stop stop-color="#278EFF"/>
<stop offset="1" stop-color="#0667E1"/>
</linearGradient>
<linearGradient id="paint37_linear_3170_13811" x1="100.828" y1="4.67828" x2="95.0682" y2="16.9562" gradientUnits="userSpaceOnUse">
<stop stop-color="#278EFF"/>
<stop offset="1" stop-color="#0667E1"/>
</linearGradient>
</defs>
</svg>
